<svg width="1440" height="557" viewBox="0 0 1440 557" fill="none" xmlns="http://www.w3.org/2000/svg">
    <g clip-path="url(#5kkq7qrkca)">
        <path fill="#fff" d="M0 0h1440v557H0z"/>
        <g clip-path="url(#ghm0s8h6yb)">
            <path d="M2215-298.486c-3.16-3.583-5.78-6.553-8.79-9.98-2.56-.627-5.81-1.424-10.31-2.521v8.747c-4.62-.548-5.18-4.388-5.29-7.829-.21-6.083-3.1-9.916-8.16-12.943-3.38-2.023-6.22-4.951-9.32-7.444-4.72-3.783-9.2-7.929-14.26-11.184-4.21-2.707-9.1-4.367-14.07-6.668-8.05 3.54-16.34-2.287-25.86-1.852 1.2 4.858 2.18 8.847 3.35 13.57-1.97 1.24-4.2 2.65-5.79 3.655-3.78-3.398-6.63-5.949-10.02-9.005 1.59-1.154 2.82-1.952 3.95-2.892 1.11-.933 2.11-2.009 3.35-3.206l-4.4-2.137c-3.05 3.163-5.65 5.849-8.24 8.535-8.68-2.052-17.03-2.985-25.33-2.658-4.36.171-7.54-.399-8.72-4.124-.63-4.452-1.27-8.898-1.78-12.502-12.62-6.169-14.28-6.198-24.92-3.113-3.74 1.083-7.75 1.254-9.76 1.56-5.93-5.642-10.54-10.03-16.2-15.423 1.39-.399 2.72-.769 4.05-1.147-4.14-5.072-8.5-7.066-14.21-5.677-.65 1.56-1.29 3.056-2.04 4.815-2.1-.292-3.97-.548-6.19-.854.57-2.65 1.03-4.78 1.48-6.853-10.21-4.581-20.34-6.704-30.25.555.39 4.93.78 10.052 1.23 15.936-2.72-.784-4.44-1.282-5.99-1.724-1.67 1.973-3 3.54-4.95 5.841-.32-2.358-.48-3.54-.68-4.986l-7.89-2.593c-2.96 1.738-5.83 3.419-8.88 5.214-2.62-2.757-4.96-5.236-7.34-7.743-3.79 4.552-1.46 12.153-7.78 16.783-3.29-3.975-7.07-6.639-9.3-11.868-2.56-5.991-4.87-13.214-12.31-15.836 3.39-3.533 6.8-7.073 10.68-11.098-2.27-2.451-3.78-4.089-5.12-5.528-3.1.855-5.18 1.432-6.5 1.795-3.75-2.372-6.81-4.31-10.21-6.468-1.4.755-3.08 1.674-5.19 2.813.54 2.793 1.07 5.486 1.7 8.755-2.2 1.304-4.57 2.707-6.57 3.883-6.79-1.859-12.98-3.548-18.68-5.101-.64-2.942-1.05-4.822-1.4-6.44-4.92-1.118-9.31-2.122-13.71-3.12.07.264.13.52.19.784-3.8.463-7.59.919-11.24 1.368-.57-1.838-.89-2.871-1.24-3.982-7.24 3.341-10.84-3.484-16.39-4.816v-5.514c3.69-2.678 7.5-5.129 10.95-8.021 5.83-4.88 8.77-11.448 9.28-18.899.17-2.486-.88-7.138-1.87-7.28-6.9-.962-6.09-8.748-11.27-11.526h-14.42c-.78.897-1.66 1.909-2.62 3.02l-6.02-1.011c1.51-2.893 2.76-5.286 3.82-7.309l-10.45-5.243c1.58-3.063 2.6-5.008 3.64-7.038-3.13-1.667-5.74-3.064-9.36-4.987-3.56 3.483-7.43 7.223-11.24 11.027-4.41 4.41-.41 10.971-3.61 15.915-3.04.434-5.81.826-8.59 1.218.28.384.54.769.81 1.154-3.13 2.977-6.27 5.955-10.06 9.553-7.06-2.501-14.26-7.573-21.98-1.268l.69 2.785c-8.4 5.236-20.89 4.167-24.79 15.351-3.51 1.503-6.32 2.7-9.14 3.911.34 3.256.62 5.963.86 8.321 1.71 2.899 3.32 5.627 5.36 9.104-8.45 1.581-15.47 3.39-22.6 4.067-5.19.492-9.49 1.617-11.56 4.737 1.09 5.849 1.95 10.444 2.57 13.799 3.73 3.661 6.83 6.696 10.14 9.937-2.44 2.194-3.88 3.491-5.56 4.994l-13.95-12.395c-4.77 2.515-8.75 4.602-13.15 6.924-.16 1.646-.35 3.569-.51 5.257 1.8 1.454 3.31 2.672 4.91 3.954-3.24 3.939-6.4 3.605-10.57.114.47-5.093.97-10.543 1.48-16.035-1.03 4.894-5.32 7.009-9.13 9.168-.75 2.158-1.39 4.01-1.95 5.613 2.09 4.652 4.12 9.197 6.04 13.492-3.74 6.49-4.65 12.802-1.83 19.989l9.54-2.094c1.6 1.133 3.3 2.336 5.75 4.082-4.99 1.417-8.91 2.529-13.31 3.782.79 4.852 1.48 8.99 2.23 13.514-4.49 6.276-9.06 12.666-14.04 19.611-4.17-4.082-11.33.214-14.2-6.774 4.62-1.297 8.86-2.494 13.42-3.783 2.74-7.088 5.32-13.77 7.7-19.939-2.33-2.835-3.95-4.801-5.33-6.475 0-5.998-1.25-11.875.3-16.876 2.24-7.217.95-12.766-3.34-17.225.57-8.157 7.47-14.518 3.16-23.024-5.25-.235-10.22-.456-15.4-.691-1.46 6.454-2.88 12.773-4.52 20.053-2 1.724-4.62 3.989-6.56 5.656.78 6.825 1.46 12.851 2.11 18.565a2102.1 2102.1 0 0 0-3.76 2.999c2.74 1.253 4.72 2.158 5.71 2.614 2.23 4.459 3.99 7.964 6.19 12.338-.11.228-.87 1.738-1.54 3.085h-3.93c-5.74-4.182-10.86-8.271-16.36-11.761-3.22-2.052-6.94-3.512-10.63-4.588-6.43-1.874-13.09-3.085-16.66-10.18-.93 1.24-1.59 2.109-2.32 3.071 2.35 2.507 4.48 4.801 6.62 7.088.5-.435.88-.763 1.25-1.09 1.23 3.576 2.45 7.152 3.77 11.027-1.3 1.225-2.73 2.579-4.21 3.975a4145.43 4145.43 0 0 1-7.91-3.583c-2.07 1.852-3.97 3.569-5.78 5.193h-8.96c.08.313.17.62.25.933-2.81.933-5.63 1.867-8.81 2.921-.45-3.619-.73-5.92-1.27-10.208-2.71 3.697-4.21 5.756-5.72 7.807-8.73 1.589-15.18 7.63-22.51 12.018-.25 2.244-.51 4.495-.82 7.266-3.01.719-5.92 1.425-8.94 2.144-1.98-3.455-3.61-6.283-5.35-9.289 3-2.436 5.35-4.331 7.92-6.411-1.47-2.494-2.74-4.645-4.2-7.124-2.5.15-4.89.285-6.02.349-.5 5.556-.91 10.258-1.43 15.943.61 1.289 1.7 3.59 2.73 5.784-.84 3.078-1.63 5.97-2.54 9.296-3.21-1.823-6.02-3.419-8.55-4.865-4.65 4.445-8.89 8.506-12.95 12.381 1.14 3.628.79 6.694-1.04 9.197-2.38-.307-4.71-.606-7.03-.898-1.29-1.232-2.82-2.679-4.37-4.16-1.13 1.026-1.77 1.595-3.23 2.928 2.3 2.229 4.48 4.352 7.01 6.81-.16.983-.42 2.571-.63 3.868-7.41 2.215-9.4-5.364-15.23-6.397-.33-5.435-.65-10.614-1.09-17.581-.92-.912-3.2-3.192-5.67-5.649.76-1.204 1.67-2.672 2.3-3.683 6.38 2.244 12.15 4.139 17.82 6.297 6.65 2.529 12.68.591 16.07-5.428 3.35-5.948 1.86-12.36-3.78-16.691-6.67-5.115-13.27-10.301-19.27-14.967-7.03-2.35-13.5-4.516-21.16-7.073 2.69-.991 3.95-1.454 5.21-1.924.03-.327.05-.655.08-.983h-17.02c2.02-1.645 2.61-2.13 3.75-3.07-1.15-.314-2.2-.591-3.61-.976 3.12-1.809 4.92-2.857 7.38-4.288-5.45-4.146-10.36-7.893-15.73-11.99-.91 2.316-1.57 4.032-2.24 5.742-2.02-1.239-3.96-2.436-5-3.077-3.47.833-6.17 1.481-7.87 1.895-2.02 3.825-3.74 7.066-5.72 10.813-3.32-.498-6.28-.947-9.43-1.424 1.02 1.688 1.97 3.248 2.91 4.808-.23.427-.46.862-.69 1.289-2.68-1.011-5.36-2.023-8.14-3.07.62 2.194 1.29 4.581 1.87 6.646-2.56 5.949-8.04 2.373-11.59 4.31-3.47 3.769-6.9 7.48-10.89 11.811.12 1.496.32 3.868.52 6.262l-4.48.662c-3.56 5.856-6.88 11.327-10.21 16.819 1.27 1.197 2.19 2.066 4.21 3.961-11.45 1.083-7 11.49-10.76 18.229-1.46-2.023-2.09-2.892-2.8-3.882-.68 1.147-1.38 2.322-2.07 3.498.83.605 1.62 1.182 1.37 1.004-3.04 4.452-5.81 8.506-9.47 13.849-2.79 1.666-7.12 4.259-12.32 7.372-.71 1.304-1.96 3.591-3.22 5.934.67 1.333 1.51 2.971 2.92 5.749-3.16-.655-5.06-1.047-7.4-1.524.11 1.909.17 2.97.22 4.003 3.53.791 6.75 1.518 9.96 2.237-.05.534-.09 1.069-.14 1.596-3.23.349-6.45.705-9.9 1.075.37 2.209.69 4.146.95 5.735l6.96-.883c-2.74 3.483-4.46 5.677-5.73 7.287.23 3.469.43 6.39.67 9.866 2.86 3.106 6.19 4.588 10 4.446 3.42-3.121 6.78-6.184 10.55-9.617.36-1.895.86-4.481 1.35-7.067 2.58 11.355 8.71 20.78 12.43 31.038v9.901c1.96.271 3.06.421 5.19.713-.66-6.682 5.09-6.091 7.92-7.501 2.44-3.47 4.3-6.134 6.06-8.641-2.31-5.015-1.59-9.282 1.99-13.471 3.27-3.825 6.02-8.1 9.11-12.331-2.86-2.978-5.34-5.564-8.79-9.154-1.56-11.718 1.04-20.267 10.78-28.502 3.58-3.027 6.82-6.454 10-9.503-3.62-7.273 1.35-11.312 3.54-15.308 5.65-1.617 10.96-2.814 15.52 1.902-.26 2.009-.55 4.153-.88 6.689-6.61 8.57-13.55 17.567-19.63 25.453 1.02 6.204 2.85 10.229 1.97 15.408-.67 3.932 2.42 8.513 3.87 12.794.04.135.54.114 1.52.299.14-1.724.27-3.234.46-5.478 3.18 3.776 5.98 4.452 10.39 2.536 5.58-2.422 11.87-3.198 16.85-4.431 3.24 2.444 5.26 3.961 6.94 5.229-3.28 2.529-6.48 5.001-10.41 8.021-7.44-3.533-14.9-2.4-20.99 4.175-.78-.969-1.24-1.546-2.01-2.494-.78 1.511-1.38 2.665-2.15 4.168 2.6.384 4.56.676 5.63.833 1.58 2.009 2.67 3.391 4.28 5.428-1.07 2.707 3.2 9.325-4.92 10.08-1.93-2.379-3.68-4.552-5.4-6.667-9.43 6.325-5.79 15.237-4.68 21.912l-11.51 7.565c-2.05-1.275-4.16-2.593-6.78-4.224-5.39 3.149-10.76 6.297-16.02 9.375-2.72-1.575-6-3.462-9.1-5.25-2.54 1.218-4.82 2.315-6.71 3.219-2.59-1.795-4.76-3.291-6.91-4.78-.25-11.127-.22-11.241 4.18-16.861-4.06-3.667-8.13-3.655-12.22.035.69 3.84 1.37 7.68 2.19 12.289-.4.591-1.32 1.952-1.63 2.407 1.62 2.836 2.92 5.129 4.41 7.737-5.87 1.667-11.14 2.757-16.06 4.744-2.47.997-5.5 3.277-6.17 5.592-2.18 7.466-8.01 10.671-14.33 14.133.4 6.433-5.69 7.722-9.22 11.334-2.65-.199-5.16-.392-8-.613l1.32 4.802c-1.33.983-2.65 1.952-3.45 2.543-4.06-.762-7.37-1.375-10.78-2.016-.16 1.902-.29 3.213-.4 4.58 18.6 9.183 19.83 19.12 13.34 34.358-6.05-.599-12.51-1.325-18.99-1.852-5.94-.492-12.06-1.546-17.55 3.768.84 4.025 2.57 8.385 2.4 12.673-.17 4.609-2.13 9.154-3.1 12.95 1.23 4.19 2.29 7.822 3.42 11.648h7.98c2 1.766 3.9 3.462 5.03 4.46 6.29-1.319 11.77-2.473 18.97-3.976 2.42-2.422 6.1-6.105 8.83-8.833-2.04-14.61 9.61-16.919 16.78-22.46-1.36-4.767-1.26-8.67 3.84-10.971 3.42 1.14 6.87 2.294 10.2 3.398 4.67-2.843 9.25-5.642 14.13-8.62 1.97.798 4.04 1.631 5.46 2.208 5.18 8.378 10.47 15.266 19.32 19.405 10.11 4.73 12.34 10.436 10.53 19.818 1.47-2.315 2.93-4.63 4.14-6.532-.73-2.543-1.25-4.331-1.72-5.941 2.27-1.36 4.01-2.415 6.09-3.669-5.94-3.776-11.42-7.266-17.65-11.234-.88-2.087-2.09-4.93-2.88-6.803-2.7-2.543-4.72-4.452-6.62-6.247.17-3.356.31-6.184.45-8.869 2.32-.585 4.17-1.048 6.25-1.575.37 1.667.74 3.32 1.06 4.73 1.49-.862 2.57-1.488 4.14-2.4 2.01 4.359 3.75 8.142 5.49 11.925.38-.371.76-.741 1.14-1.104 6.21 4.772 12.42 9.552 18.54 14.261-.76 3.078-1.28 5.207-1.73 7.003 4.51 6.853 7.09 15.771 17.1 14.347-.53-4.082-1.09-8.4-1.74-13.336 2.4.77 3.96 1.275 5.76 1.845 1.37-1.702 2.76-3.42 4.56-5.663 3.93.947 7.93 1.916 12.66 3.056-1.46 2.394-2.45 4.018-2.79 4.573.9 3.534 1.53 6.17 2.26 8.784.75 2.707 1.6 5.392 2.34 7.864 5.93 2.92 11.61 5.735 17.85 2.002l8.8 4.702c3.13-1.375 6.43-2.828 9.67-4.253 1.51.919 2.94 1.78 4.23 2.571.41 3.861.8 7.48 1.29 12.203-5.59 4.837-3.41 14.718-10.38 19.64-5.12-.705-9.86-1.353-15.58-2.137-2.12 1.026-5.13 2.479-8.76 4.238-11.59-3.69-23.68-7.536-37.53-11.946-1.04.513-3.75 1.874-6.77 3.391 1.38 5.713 1.59 10.664-3.84 11.47-5.21-1.917-9.24-3.093-12.98-4.873-2.37-1.126-4.58-2.9-6.4-4.816-3.1-3.27-6.46-5.471-11.16-5.45-6.41.029-11.33-3.148-15.77-7.729 1.8-2.087 3.46-3.996 4.8-5.563-.49-3.698-.91-6.875-1.43-10.778-.89-.435-2.64-1.29-2.9-1.41-4.97.533-8.3 1.153-11.64 1.189-6.7.071-13.66-.413-20.02.598-9.21 1.468-17.98 5.713-26.94 8.776l.33.948h-13.85c-1.89-1.496-3.73-2.942-6.04-4.773-.81 10.3-6.9 15.387-14.85 18.172-1.36 6.063-7.56 10.586-2.48 16.962-5.96 4.623-8.98 12.16-16.27 11.989-3.51 4.68-6.39 8.534-9.27 12.388.17.064.32.135.49.2-4.62 8.405-9.23 16.811-14.42 26.271 5.6-1.631 6.09.677 6.24 3.612.19 3.733.57 7.451.98 12.466-1.4 4.09-3.27 9.567-5.2 15.238.72 1.531 2.52 3.526 2.2 5.086-.96 4.616 1.05 6.718 4.51 9.432 4.42 3.455 8.45 7.936 11.24 12.787 2.62 4.545 4.87 8.691 9.72 11.362 3.69 2.03 6.87 5.072 10.05 7.921 3.47 3.113 7.96 5.308 11.76 3.284 8.36-4.452 16.48-3.433 25.02-1.09 1.04-.534 2.06-1.004 3.02-1.567 7.3-4.224 15.34-5.706 23.61-6.333 7.38-.562 10.3 4.31 11.96 10.201 7.5-1.168 14.29-1.567 20.19 5.236-.89 3.534-3.18 7.558-2.48 10.964.93 4.466-.59 7.266-3.78 10.82 5.77 6.796 11.39 13.393 17.49 20.581 2.57 9.203 5.36 19.176 8.46 30.275-1.64 2.842-3.52 6.539-5.81 9.966-5.51 8.263-5.08 21.912-.46 30.824 3.66 7.081 8.48 13.677 8.71 22.646.19 7.416 2.59 15.131 5.6 22.019 3.57 8.185 8.83 15.629 13.06 22.86-.94 14.554.52 12.424 6.51 16.812 8.34-.976 15.89-2.152 23.49-2.65 5.87-.385 11.24-1.796 15.82-5.421 9.56-7.559 15.81-17.981 23.16-27.434 1.14-1.453 1.5-3.654 1.79-5.57.51-3.519.69-7.081.99-10.322 4.65-2.415 8.81-4.574 13.55-7.039-1.39-8.12-2.64-15.429-3.95-23.13 7.75-6.604 14.77-14.39 24.6-17.41 1.72-3.448 3.12-6.248 3.75-7.501-.41-8.591-.75-15.687-1.11-23.387-9.97-4.424-.25-16.527-8.22-21.613 4.97-15.366 14.66-27.02 26.57-35.675 11.39-8.285 20.96-17.382 26.8-29.984 3.23-6.953 9.4-13.314 6.76-21.656-11.24 2.152-22.27 4.267-32.18 6.162-5.74-3.676-5.33-8.17-5.29-12.516 4.08.435 8.1.89 11.58-2.258.95-.855 2.57-.962 3.87-1.44 8.68-3.148 17.37-6.296 26.06-9.46 1.08-1.78 2.1-3.469 3.36-5.577 4.18-.99 8.56-2.023 11.86-2.807 4.99-4.067 9.29-7.58 13.58-11.091 1.08-3.12 3.03-5.55 4.93-8.029 2.03-2.671 4.01-5.385 6.73-9.04-6.36-4.032-12.39-7.85-17.87-11.326-.17-3.142-.28-5.143-.37-6.74-3.57 2.979-6.92 7.823-11.01 8.57-3.68.67-8.88 5.265-12.13.243-.47-3.683-.83-6.547-1.44-11.305-.87 3.704-1.28 5.463-1.7 7.223-.46.093-.92.185-1.39.27-1.11-2.856-2.23-5.712-3.69-9.46-4.9-4.687-8.43-11.22-10.42-19.426h12.69c2.16 4.032 4.16 7.772 5.55 10.387 4.47 3.105 7.95 5.52 12.54 8.712 3.06-1.069 6.93-2.422 11.87-4.153 1.85 2.35 4.01 5.079 6.61 8.398 13.68 5.094 28.82 3.712 43.27 2.024 5.4 5.905 10.12 11.077 15.15 16.576-.09.257-.41 1.261-.75 2.308 2.15 2.294 4.32 4.602 6.91 7.373 2.79-2.194 5.28-4.146 8.87-6.96 1.45 12.773 2.49 25.076 7.71 36.566 5.21 11.455 9.34 23.394 15.86 34.991 4.32-5.1 7.9-9.324 11.77-13.89l2.41-25.51c13.19-4.702 19.17-18.472 31.59-23.359.47-2.472.89-4.659 1.28-6.639 16.09-4.915 20.63-5.564 25.19-3.484.25 2.366.51 4.909.69 6.647 2.66 4.801 9.89 3.49 10.18 10.066.22 4.872 1.02 9.723 1.68 15.572 4.64 1.638 8.25-2.187 12.26-6.654 2.82 7.516 6.55 14.14 7.59 21.172 1.11 7.423-.37 15.223-.74 23.415 10.99 6.191 8.72 19.54 15.03 28.687 3.7 2.18 7.44 4.374 11.92 7.01-1.47-6.946-2.67-12.623-4.33-20.431-2.58-1.681-7.41-3.832-10.84-7.351-3.35-3.441-5.27-8.271-8.61-13.792.43-6.219 2.53-13.342 7.19-21.32 1.32 3.269 1.92 4.765 2.67 6.631 9.56-1.688 9.61 11.013 17.76 11.184.29 2.828.52 5.03.86 8.3 7.74-5.735 14.86-11.014 22.31-16.528l-2.45-15.009c-6.44-7.487-11.98-13.948-18.07-21.029 4.35-4.801 8.24-9.111 11.72-12.958h9.5c.53 1.404 1.11 2.914 1.95 5.108 1.76-2.173 3.11-3.833 3.39-4.189 9.97-3.476 18.42-6.425 29.03-10.123 12.34-3.775 14.76-19.383 24.87-30.125.15-.862.58-3.299 1.04-5.892-.58-.548-1.14-1.204-1.81-1.688-.82-.584-1.75-1.011-4.03-2.3 2.65-.635 3.67-.877 5.14-1.226-3.05-8.577-3.42-18.336-12.42-24.37 2.18-3.833 3.3-8.15 8.91-9.325 2.95-.62 5.46-3.384 8.67-5.514-4.05-1.004-7.06-1.745-9.34-2.315-3.45 1.054-6.33 1.938-10.04 3.07l1.06-4.238c-1.75-.848-3.64-1.76-6.93-3.362 6.36-6.006 12-11.334 18.19-17.19 1.79.89 3.67 1.831 5.55 2.771-1.48 3.27-2.67 5.899-4.21 9.318 5.77-2.137 10.32-3.811 15.13-5.592.31 2.287.44 3.227.56 4.203 1.39-.328 2.41-.57 3.62-.862-.55 2.864-1.06 5.556-1.59 8.313 2.51 1.49 4.67 2.779 6.64 3.947v17.446c6.19 1.481 9.74-2.544 13.96-4.894v-10.508c-3-4.281-6.33-9.011-9.95-14.154 3.68-5.4 13.68-6.718 12.39-15.245 3.84-3.52 6.98-6.397 10.25-9.382 7.49 4.467 11.36 3.384 17.1-4.267 7.15-9.531 14.24-19.041 20.3-29.349 2.26-3.854 3.74-7.38 3.96-11.868.3-5.941-.32-12.331 4.54-17.147 4.85-1.218 5.49 2.807 5.56 5.514.14 5.093-.94 10.215-1.26 15.337-.13 2.08.39 4.203.61 6.304 2.54-4.202 3.04-9.46 8.56-9.182-1.87-11.02-3.66-21.556-5.39-31.714-.61.42-1.95 1.36-3.31 2.301-.47 2.023-.96 4.06-1.64 6.938-1.88-1.496-2.9-2.315-3.98-3.177.97-1.46 1.77-2.643 2.39-3.569-3.47-2.85-6.9-5.663-10.11-8.299-3.1 2.436-5.55 4.36-9.2 7.223-.5-8.427-5.17-10.55-11.4-10.949.54-1.873.52-3.54 1.35-4.402 7.59-7.936 15.34-15.701 22.96-23.608.93-.954 1.14-2.572 1.96-3.654 4.98-6.497 9.85-13.243 19.71-11.234 2.41.491 4.85.84 7.17 1.232.79-.905 1.45-1.645 1.76-2.009 3.26.592 6 1.097 9.02 1.646 1.73-1.368 3.72-2.942 5.9-4.673 3.86.933 7.59 1.838 11.21 2.714-.33 1.895-.62 3.547-.99 5.649 5.71-1.254 10.91-2.401 16.61-3.647-1.34-1.254-2.65-2.487-3.94-3.698 6.78-9.795 11.09-22.411 25.76-23.151 1.76 1.474 3.29 2.749 4 3.341v9.374c5.06-4.003 9.37-7.401 14.37-11.348.22-1.966.57-5.015.96-8.384 2.4.263 4.29.477 6.57.726-.7 2.095-1.64 3.669-1.69 5.265-.24 6.774-1.81 12.473-8.6 15.914-2.32 1.175-3.61 4.296-5.48 6.418-6.36 7.224-12.78 14.397-19.17 21.592-2.31 2.016-4.24 4.516-5.55 7.316-1.3 2.757-2.88 5.863-2.73 8.734.44 8.79 1.61 17.552 2.62 26.314.45 3.783 1.21 7.53 1.91 11.868 6.56-4.124 9.28-9.346 10.15-15.28 2.03-1.147 3.73-2.101 5.43-3.063.19-2.429.37-4.687.55-7.095 3.25-1.382 6.27-2.664 9.83-4.182-3.85-7.131-.03-11.084 4.56-13.207v-13.164c-1.91-1.176-4.01-2.465-6.12-3.755 3.88-5.941 5.42-10.186 7.6-14.083 1.9-3.419 4.76-5.735 8.97-3.348 2.14-3.042 4.4-4.752 6.76-2.657 5.04-1.56 9.47-2.928 13.12-4.061 2.82 2.38 4.49 3.79 5.8 4.894 9.5-10.329 20.11-18.671 32.69-24.263 1.99-.883 4.84.363 7.29.321 1.97-.036 3.93-.52 6.28-.862-2.99-7.509-5.49-13.813-8.03-20.174 2.49-1.788 5.2-3.733 8.43-6.048v-15.102c2.27 1.211 3.84 2.051 5.38 2.87l1.65-5.057c1.3 4.43 2.05 7.002 2.98 10.151 3.05-.428 5.68-.791 8.97-1.254 1.56 2.828 3.17 5.735 4.81 8.691 4.15 2.287 8.36 4.616 14.4 7.95-1.12-3.64-1.58-5.101-2.17-7.024 4.64-4.858 9.43-9.859 14.28-14.924l.05.035z" fill="#EFF0F2"/>
            <circle cx="1272.36" cy="117.639" r="34.197" transform="rotate(27.591 1272.36 117.639)" fill="#38983C" fill-opacity=".1" stroke="#38983C" stroke-width=".5" stroke-dasharray="2 2"/>
            <circle cx="1272.36" cy="117.639" r="27.048" transform="rotate(27.591 1272.36 117.639)" fill="#38983C" fill-opacity=".15" stroke="#38983C" stroke-width=".5" stroke-dasharray="2 2"/>
            <circle cx="1272.36" cy="117.639" r="19" transform="rotate(27.591 1272.36 117.639)" fill="#38983C"/>
            <path d="M1275.57 114.259c-.12-.907-.43-1.607-.94-2.1-.51-.507-1.21-.76-2.1-.76-1.23 0-2.17.467-2.82 1.4-.64.933-.96 2.42-.96 4.46 0 .387.01.68.02.88.19-.88.66-1.573 1.42-2.08.76-.52 1.66-.78 2.7-.78 1.43 0 2.54.427 3.34 1.28.8.84 1.2 2.013 1.2 3.52 0 .867-.17 1.653-.5 2.36-.33.707-.85 1.273-1.56 1.7-.71.427-1.59.64-2.64.64-2.01 0-3.39-.627-4.14-1.88-.73-1.267-1.1-2.98-1.1-5.14 0-2.467.4-4.333 1.2-5.6.8-1.28 2.11-1.92 3.92-1.92 1.29 0 2.3.373 3.02 1.12.72.733 1.15 1.7 1.28 2.9h-1.34zm-6.64 5.5c0 .667.13 1.293.4 1.88.27.573.68 1.04 1.24 1.4.56.347 1.27.52 2.12.52 1.03 0 1.85-.307 2.46-.92.63-.627.94-1.487.94-2.58 0-1.187-.31-2.093-.94-2.72-.61-.627-1.46-.94-2.54-.94-.61 0-1.2.127-1.76.38s-1.02.633-1.38 1.14c-.36.493-.54 1.107-.54 1.84z" fill="#fff"/>
        </g>
        <g clip-path="url(#twbolkchdc)">
            <path d="M276.387 274.01c1.714-4.456 3.133-8.155 4.774-12.412-.629-2.557-1.429-5.811-2.542-10.308l-7.753 4.051c-1.654-4.35 1.491-6.621 4.488-8.316 5.296-3 7.353-7.338 7.694-13.222.226-3.936 1.508-7.804 2.28-11.711 1.168-5.931 2.765-11.828 3.308-17.818.449-4.984-.343-10.083-.609-15.561-6.866-5.493-5.538-15.533-10.333-23.772-3.752 3.311-6.832 6.03-10.477 9.253-2.009-1.169-4.292-2.491-5.921-3.44 1.26-4.925 2.204-8.625 3.339-13.052 1.758.874 3.039 1.602 4.394 2.164 1.342.553 2.757.938 4.391 1.482l-.141-4.884-11.38-3.351c-2.203-8.645-5.246-16.482-9.379-23.684-2.171-3.784-3.137-6.863-.382-9.636l10.255-7.369c-.378-14.043-1.121-15.527-8.783-23.529-2.692-2.812-4.701-6.287-5.902-7.925 2.252-7.871 4.007-13.988 6.163-21.504 1.001 1.053 1.942 2.055 2.894 3.06 2.575-6.022 2.324-10.81-1.549-15.222-1.687.142-3.306.273-5.212.425-.714-1.997-1.354-3.776-2.112-5.888 2.612-.722 4.715-1.298 6.76-1.86-.671-11.174-3.481-21.134-14.503-26.552-4.191 2.624-8.549 5.344-13.552 8.473-.566-2.774-.923-4.533-1.247-6.107-2.524-.57-4.527-1.018-7.47-1.682 1.942-1.376 2.914-2.069 4.103-2.915l-1.357-8.195c-2.909-1.815-5.729-3.58-8.735-5.457 1.233-3.593 2.344-6.818 3.465-10.088-5.789-1.25-11.447 4.335-18.48.874 2.002-4.75 2.612-9.337 6.213-13.734 4.125-5.041 9.455-10.438 8.331-18.249 4.705 1.375 9.423 2.758 14.785 4.328 1.123-3.142 1.872-5.246 2.527-7.099-2.192-2.35-3.667-3.926-4.602-4.932.367-4.419.669-8.024 1.005-12.041-1.316-.887-2.912-1.958-4.899-3.298-2.224 1.773-4.366 3.487-6.97 5.563a3768.261 3768.261 0 0 1-6.483-4.022 17505.46 17505.46 0 0 0-4.132-18.92c2.31-1.93 3.789-3.16 5.057-4.225-1.285-4.874-2.43-9.234-3.581-13.591-.204.179-.402.355-.609.528-2.169-3.151-4.331-6.304-6.418-9.328a1213.11 1213.11 0 0 0 2.956-2.943c-6.316-4.872-1.934-11.22-3.323-16.755l4.886-2.553c4.083 2.029 8.02 4.271 12.18 5.987 7.023 2.903 14.21 2.474 21.048-.529 2.282-1 5.917-4.089 5.588-5.026-2.348-6.568 4.932-9.448 4.993-15.331l-6.68-12.782-3.888-.918-1.894-5.809c3.263-.001 5.965.002 8.249.005-.077-4.5-.137-8.214-.192-11.689 3.447-.017 5.639-.021 7.923-.034.026-3.549.053-6.513.085-10.604-4.737-1.542-9.846-3.244-14.982-4.859-5.95-1.865-9.911 4.721-15.777 4.17-1.794-2.494-3.424-4.768-5.055-7.042-.215.418-.434.83-.65 1.248-4.09-1.399-8.181-2.797-13.124-4.489-1.057-7.42.104-16.151-9.06-20.073-.439.39-1.28 1.135-2.148 1.902-8.53-5.017-13.366-16.578-25.086-14.857-2.958-2.415-5.319-4.348-7.702-6.293-2.727 1.81-4.997 3.31-6.971 4.623-1.781 2.852-3.454 5.542-5.588 8.964-5.317-6.76-10.17-12.14-14.072-18.145-2.841-4.374-5.831-7.665-9.553-8.051-4.678 3.675-8.355 6.56-11.041 8.664a8948.36 8948.36 0 0 0-4.11 13.591c-3.076-1.149-4.892-1.824-6.999-2.611l4.523-18.107c-4.439-3.064-8.13-5.62-12.226-8.445-1.535.617-3.325 1.344-4.897 1.98-.454 2.27-.834 4.173-1.231 6.181-4.99-1.042-6.157-3.999-4.997-9.315 4.732-1.943 9.796-4.018 14.898-6.114-4.812 1.358-8.677-1.469-12.354-3.846l-5.876.877c-3.156 4.004-6.244 7.908-9.16 11.601-7.487-.314-13.503 1.801-18.564 7.636 2.133 2.543 4.096 4.884 6.273 7.483-.261 1.944-.543 4.004-.952 6.99l-9.52-10.052c-3.931 2.954-7.282 5.477-10.945 8.235-7.64-1.07-15.422-2.163-23.88-3.352 1.685-5.589-5.44-9.95-.573-15.724 3.286 3.489 6.31 6.691 9.567 10.14 7.549-.859 14.668-1.662 21.237-2.411 1.434-3.378 2.425-5.728 3.272-7.721 5.316-2.778 9.944-6.611 15.095-7.551 7.435-1.354 11.752-5.073 13.719-10.939 7.493-3.273 16.324-.109 21.866-7.867-2.22-4.755-4.326-9.263-6.52-13.968l-19.863 5.286c-2.455-.975-5.677-2.249-8.051-3.194-5.689 3.849-10.714 7.247-15.477 10.467-1.692-.747-2.851-1.258-4.4-1.944.156 3.005.275 5.185.326 6.267-2.917 4.048-5.208 7.23-8.065 11.207-.255.004-1.943.035-3.45.058l-1.817-3.478c1.047-7.024 2.299-13.457 2.846-19.946.324-3.81-.104-7.782-.86-11.55-1.314-6.561-3.329-13.03 1.307-19.479l-3.794-.629c-1.137 3.238-2.18 6.194-3.217 9.147.616.24 1.081.423 1.547.606-2.602 2.742-5.208 5.478-8.029 8.447-1.69-.588-3.552-1.23-5.475-1.896-.173-3.052-.33-5.847-.486-8.667-2.599-.972-5-1.863-7.278-2.714l-4.153-7.947c-.239.221-.47.439-.709.66l-6.672-6.462c3-2.074 4.91-3.386 8.463-5.846-4.533-.692-7.054-1.071-9.572-1.459-5.452-7.003-13.791-9.918-21.075-14.381-2.107.813-4.221 1.628-6.822 2.634-2.03-2.331-4.004-4.586-6.037-6.923a4723.59 4723.59 0 0 0 5.752-9.049c3.551 1.535 6.32 2.741 9.35 4.05l4.37-7.018a1907.455 1907.455 0 0 1-3.1-5.178c-5.155 2.131-9.513 3.943-14.789 6.121-.862 1.134-2.397 3.166-3.863 5.097-3.117.681-6.046 1.319-9.417 2.052.132-3.685.243-6.917.354-9.828-6.094-2.063-11.659-3.945-16.974-5.748-2.687 2.691-5.564 3.805-8.629 3.344-.833-2.256-1.647-4.459-2.46-6.646.492-1.719 1.067-3.74 1.662-5.802-1.434-.529-2.233-.827-4.09-1.504-.913 3.066-1.785 5.98-2.793 9.36-.943.316-2.47.825-3.718 1.236-5.394-5.539.403-10.811-1.383-16.459 4.662-2.814 9.103-5.497 15.076-9.109.383-1.236 1.348-4.312 2.381-7.641 1.417.112 3.14.24 4.33.333.963 6.689 1.956 12.68 2.672 18.711.837 7.06 5.348 11.509 12.253 11.726 6.826.218 11.815-4.077 13.041-11.082 1.446-8.278 2.984-16.531 4.342-24.007-1.173-7.319-2.252-14.06-3.532-22.031 2.121 1.922 3.115 2.824 4.116 3.724.304-.127.604-.259.908-.386l-7.881-15.08c2.392 1.024 3.095 1.324 4.46 1.904-.257-1.167-.496-2.224-.812-3.658 3.052 1.933 4.812 3.038 7.222 4.559 1.15-6.749 2.196-12.84 3.339-19.497-2.471.271-4.303.473-6.128.671.165-2.36.328-4.631.412-5.856-2.342-2.682-4.17-4.78-5.322-6.091a9122.49 9122.49 0 0 1-12.236-.067c-1.092-3.166-2.067-6-3.105-9.017-1.021 1.69-1.965 3.253-2.912 4.808l-1.463-.015-1.046-8.63a2054.42 2054.42 0 0 0-5.026 4.732c-6.46.482-5.827-6.028-9.187-8.274-4.95-1.335-9.826-2.653-15.515-4.188-1.266.807-3.276 2.082-5.305 3.368a5805.005 5805.005 0 0 1-2.666-3.67l-19.633-1.256c-.47 1.684-.815 2.901-1.561 5.565-6.264-9.649-13.423-.877-21.141-1.095 1.117-2.231 1.597-3.189 2.145-4.279-1.33-.068-2.695-.142-4.06-.217a99.904 99.904 0 0 1-.254 1.684c-5.354-.633-10.23-1.211-16.657-1.975-2.771-1.702-7.074-4.339-12.245-7.512-1.482-.021-4.086-.067-6.75-.105-.867 1.217-1.93 2.721-3.739 5.257-.884-3.106-1.418-4.973-2.077-7.264a454.355 454.355 0 0 1-3.449 2.043c.936 3.498 1.783 6.687 2.633 9.867-.497.204-.99.413-1.48.613-1.804-2.698-3.611-5.386-5.539-8.276-1.786 1.351-3.355 2.533-4.64 3.502l4.005 5.758c-4.357-.817-7.1-1.328-9.114-1.706a5340.151 5340.151 0 0 0-8.431 5.169c-1.428 3.972-1.199 7.611.689 10.915 4.352 1.592 8.621 3.146 13.409 4.895 1.847-.556 4.37-1.312 6.889-2.074-8.866 7.551-14.382 17.345-21.751 25.391l-8.776 4.586c.668 1.861 1.046 2.909 1.774 4.932 5.618-3.676 7.756 1.692 10.316 3.545 4.203.552 7.429.971 10.466 1.369 3.376-4.368 7.491-5.707 12.862-4.472 4.905 1.126 9.966 1.583 15.148 2.363 1.313-3.917 2.457-7.311 4.039-12.036 9.663-6.81 18.443-8.465 30.254-3.644 4.34 1.767 8.877 3.052 13.054 4.461 4.77-6.575 10.649-4.046 15.207-3.953 4.049 4.257 7.568 8.405 5.503 14.636l-6.338 2.315-31.649-5.608c-5.024 3.783-7.744 7.269-12.743 8.885-3.795 1.228-6.426 6.083-9.547 9.353-.1.101.149.533.437 1.484 1.594-.673 2.992-1.259 5.07-2.127-1.875 4.564-1.175 7.364 2.565 10.384 4.73 3.821 8.334 9.041 11.732 12.883-.665 4.004-1.076 6.493-1.421 8.57a8826.949 8826.949 0 0 1-11.929-5.508c-.315-8.232-4.776-14.323-13.421-16.669.496-1.143.793-1.82 1.28-2.934-1.702.005-3.002.009-4.693.017.866 2.489 1.511 4.353 1.87 5.379a3466.294 3466.294 0 0 0-2.828 6.308c-2.894.307-6.783 7.153-11.213.307 1.215-2.813 2.329-5.372 3.409-7.873-9.974-5.428-16.187 1.925-21.588 6.002-4.849-2.698-8.264-4.602-12.035-6.697.18-2.409.368-4.894.603-7.966-5.288-3.32-10.566-6.621-15.731-9.861.135-3.14.291-6.918.441-10.492-2.258-1.69-4.286-3.201-5.962-4.455.391-3.129.714-5.741 1.037-8.337 9.746-5.375 9.86-5.402 16.88-4.104 1.367-5.301-.53-8.906-5.692-10.816-3.083 2.391-6.173 4.769-9.878 7.629l-2.886-.324c-1.764 2.747-3.193 4.964-4.815 7.491-4.195-4.429-7.606-8.602-11.643-12.037-2.029-1.728-5.454-3.362-7.816-2.883-7.623 1.533-13.166-2.152-19.16-6.148-5.52 3.327-9.483-1.473-14.317-2.925-1.05-2.441-2.041-4.752-3.162-7.372-1.184 1.101-2.319 2.16-3.645 3.391-1.488-.725-2.957-1.444-3.85-1.877-1.205-3.951-2.196-7.17-3.208-10.491-1.761.736-2.979 1.236-4.244 1.768.478 20.741-7.762 26.429-24.271 27.736-2.274-5.642-4.622-11.704-7.154-17.686-2.318-5.499-4.218-11.409-11.468-13.808-3.181 2.602-6.243 6.155-10.12 7.996-4.167 1.977-9.099 2.353-12.916 3.247-3.141 3.032-5.87 5.655-8.739 8.424l3.698 7.076c-.642 2.586-1.261 5.063-1.623 6.522 4.081 4.964 7.64 9.283 12.307 14.969l11.92 3.736c12.005-8.573 19.448.685 27.678 4.469 3.594-3.413 7.1-5.133 11.501-1.679.573 3.558 1.15 7.154 1.716 10.619 4.679 2.819 9.282 5.581 14.18 8.525.207 2.119.428 4.341.573 5.865-5.023 8.475-8.68 16.35-8.251 26.107.492 11.154-3.532 15.772-12.685 18.514 2.731.228 5.463.457 7.709.649 1.914-1.828 3.258-3.117 4.467-4.28 2.255 1.378 3.998 2.436 6.072 3.698.595-7.013 1.149-13.49 1.782-20.845 1.441-1.749 3.402-4.133 4.697-5.701 1.003-3.57 1.759-6.247 2.469-8.764l8.068-3.71c1.593 1.787 2.858 3.208 4.288 4.807-1.302 1.106-2.596 2.2-3.7 3.131l4.047 2.562c-2.933 3.799-5.481 7.091-8.025 10.39.503.163 1.006.326 1.503.492-1.354 7.715-2.713 15.433-4.05 23.043-3.08.75-5.209 1.275-7.007 1.709-3.986 7.17-10.696 13.586-4.795 21.801 3.37-2.364 6.935-4.862 11.014-7.717.43 2.484.704 4.101 1.03 5.955 2.145.43 4.307.86 7.13 1.417.982 3.924 1.977 7.92 3.157 12.639-2.797-.185-4.695-.31-5.346-.356-2.713 2.438-4.758 4.214-6.739 6.069-2.049 1.923-4.037 3.918-5.885 5.719.16 6.611.295 12.946 6.493 16.746-.031 3.448-.058 6.548-.09 9.98l8.246 6.596c-.115 1.764-.216 3.432-.316 4.947-3.234 2.148-6.263 4.165-10.218 6.794-6.88-2.721-14.627 3.787-22.216-.107-1.747-4.865-3.37-9.369-5.324-14.801-1.889-1.399-4.569-3.39-7.814-5.801-2.094-11.973-4.286-24.473-6.794-38.793a2583.54 2583.54 0 0 0-6.139-4.426c-4.427 3.865-8.716 6.347-11.943 1.91-.716-5.508-1.538-9.619-1.695-13.764-.101-2.624.448-5.402 1.306-7.899 1.463-4.261 1.853-8.266-.34-12.416-2.994-5.668-2.458-11.501-.453-17.555 2.684.63 5.142 1.21 7.154 1.678 3.049-2.148 5.67-3.992 8.889-6.261a383.2 383.2 0 0 0-.096-3.229c-2.772-4.152-4.866-6.819-6.444-9.763-3.164-5.901-5.958-12.292-9.8-17.461-5.569-7.488-13.393-13.292-20.258-19.815-.228.24-.46.49-.688.73l-6.413-12.272c.449-2.372.879-4.67 1.43-7.569-9.502 4.057-16.831 1.016-22.981-4.738-6.003 1.602-12.885-1.801-16.18 5.659-6.859-3.142-14.937-2.328-18.164-8.871-5.771-.938-10.522-1.71-15.27-2.475.019.175.028.347.047.522-9.587-.197-19.172-.388-29.961-.608 4.039 4.206 2.221 5.71-.311 7.202-3.219 1.9-6.34 3.957-10.597 6.639-4.27.657-9.99 1.54-15.909 2.456-1.028 1.34-1.961 3.861-3.492 4.3-4.533 1.292-5.469 4.039-6.267 8.37-1.017 5.514-3.121 11.162-6.128 15.884-2.817 4.421-5.446 8.342-5.567 13.878-.09 4.211-1.315 8.435-2.369 12.57-1.152 4.516-1.015 9.515 2.539 11.949 7.816 5.342 10.677 13.016 12.552 21.664.955.674 1.843 1.359 2.79 1.957 7.126 4.513 12.16 10.947 16.545 17.986 3.92 6.285.954 11.13-3.502 15.323 4.513 6.112 8.01 11.943 4.715 20.327-3.547.841-8.173.679-10.867 2.875-3.53 2.889-6.714 2.841-11.342 1.66-3.348 8.266-6.595 16.296-10.138 25.035-6.966 6.541-14.512 13.635-22.913 21.521-3.282-.141-7.429-.096-11.525-.535-9.877-1.058-21.772 5.649-27.533 13.866-4.576 6.531-8.193 13.853-16.036 18.209-6.483 3.605-12.209 9.306-16.922 15.16-5.598 6.96-9.758 15.073-14.21 22.165-13.33 5.914-10.77 6.215-11.885 13.556 4.728 6.94 9.27 13.093 13.229 19.591 3.062 5.029 6.799 9.135 12.134 11.515 11.126 4.97 23.259 5.686 35.041 7.822 1.813.33 3.932-.367 5.762-1.002 3.356-1.176 6.599-2.661 9.61-3.898 4.294 3.004 8.131 5.684 12.512 8.747 6.554-4.993 12.454-9.482 18.669-14.217 9.445 3.816 19.598 6.433 26.824 13.739 3.854-.069 6.985-.122 8.387-.147 7.426-4.339 13.556-7.929 20.213-11.817-.698-10.886 14.531-7.876 15.348-17.295 15.921-2.711 30.739.482 43.922 7.022 12.621 6.262 25.114 10.526 38.99 9.872 7.657-.361 16.151 2.159 22.324-4.04-7.112-8.964-14.097-17.762-20.368-25.671.602-6.784 4.774-8.506 8.641-10.487 1.505 3.818 2.965 7.595 7.369 9.224 1.196.443 2.04 1.827 3.066 2.761 6.812 6.236 13.624 12.473 20.455 18.715 2.077.129 4.045.249 6.501.396 2.81 3.241 5.754 6.644 7.98 9.21 5.914 2.535 11.019 4.721 16.12 6.901 3.264-.492 6.321.112 9.395.643 3.311.568 6.634 1.066 11.129 1.778.631-7.498 1.221-14.613 1.762-21.083 2.705-1.607 4.43-2.629 5.805-3.444-4.296-1.789-10.139-2.512-12.696-5.789-2.299-2.954-8.779-5.433-5.835-10.644 3.049-2.116 5.419-3.765 9.356-6.505-3.689.939-5.439 1.388-7.19 1.837a90.934 90.934 0 0 1-.883-1.106c2.013-2.314 4.03-4.622 6.672-7.658 1.888-6.507 6.041-12.664 12.391-18.232l5.878 11.249c-2.574 3.78-4.962 7.286-6.632 9.734-.684 5.396-1.211 9.601-1.915 15.145 2.365 2.219 5.356 5.02 9.179 8.599-1.225 2.73-2.647 5.9-4.382 9.748 1.82 14.478 10.058 27.258 18.247 39.284-2.733 7.52-5.129 14.101-7.675 21.104-.266.043-1.305.224-2.391.406-1.037 2.97-2.08 5.957-3.335 9.538 3.238 1.459 6.119 2.758 10.275 4.636-10.647 7.203-21.069 13.823-28.834 23.772-7.741 9.92-16.409 19.11-23.666 30.264 6.52 1.463 11.923 2.681 17.761 3.994 7.876-3.216 16.041-6.542 23.724-9.681 10.276 9.512 25.251 8.437 35.335 17.182 2.409-.728 4.542-1.368 6.475-1.945 11.812 11.99 14.487 15.71 14.755 20.714-1.98 1.316-4.112 2.727-5.57 3.69-3.025 4.579 1.488 10.385-4.204 13.689-4.216 2.452-8.146 5.406-13.026 8.696.699 4.874 5.758 6.297 11.574 7.782-5.354 5.98-9.494 12.363-15.244 16.54-6.067 4.417-13.663 6.724-21.095 10.19-.397 12.607-13.28 16.776-18.464 26.605-.22 4.286-.433 8.616-.694 13.808 5.476-4.518 9.951-8.214 16.105-13.295.292-3.07-.037-8.346 1.495-13.012 1.495-4.567 4.885-8.508 8.234-14.02 5.71-2.501 12.997-3.938 22.225-3.505-2.288 2.682-3.336 3.905-4.641 5.438 5.924 7.69-5.31 13.617-1.688 20.917a6661.21 6661.21 0 0 0-6.956 4.608l24.979 12.115c4.72-3.535 8.996-6.734 12.171-9.117 3.654-9.174 6.81-17.083 10.268-25.754 6.268 1.627 11.889 3.077 16.911 4.382l4.401 8.421c-.996 1.123-2.068 2.334-3.626 4.089 2.743.559 4.838.983 5.286 1.07 7.699 7.228 14.225 13.349 22.417 21.041 9.06 9.185 24.014 4.102 38.216 8.084.833-.267 3.194-1.01 5.703-1.807.219-.766.542-1.562.658-2.386.138-.996.088-2.015.172-4.638a4564.62 4564.62 0 0 1 3.468 3.99c6.189-6.674 14.667-11.523 15.849-22.29 4.406.157 8.746-.858 12.387 3.572 1.919 2.332 5.53 3.274 8.902 5.128-.984-4.05-1.72-7.057-2.273-9.348l-7.37-7.472c2.12-.513 3.17-.764 4.245-1.029-.056-1.939-.123-4.034-.226-7.693l23.66 8.16.11 6.195c-3.58.208-6.461.371-10.208.585 4.57 4.13 8.158 7.382 11.966 10.824-1.884 1.33-2.658 1.88-3.464 2.445.93 1.073 1.62 1.87 2.44 2.808-2.792.84-5.416 1.633-8.104 2.442-.158 2.912-.301 5.422-.423 7.711l-15.462 8.081c1.554 6.171 6.764 7.451 10.803 10.105l9.313-4.867c2.402-4.646 5.054-9.785 7.936-15.374 6.488.756 12.291 9.015 19.248 3.917 4.9 1.778 8.906 3.229 13.062 4.738-.488 8.709 2.266 11.642 11.702 13.179 11.76 1.923 23.47 3.799 35.413 4.397 4.465.222 8.273-.104 12.356-1.981 5.404-2.486 10.78-5.995 17.298-3.921 3.326 3.735.056 6.167-2.31 7.484-4.452 2.479-9.49 3.898-14.177 5.986-1.903.85-3.547 2.288-5.307 3.457 4.902.307 9.792-1.686 12.103 3.334 8.903-6.758 17.409-13.228 25.614-19.461-.657-.348-2.11-1.099-3.574-1.869-2.014.514-4.044 1.028-6.911 1.755.458-2.353.71-3.641.972-5 1.746.189 3.163.348 4.271.468.92-4.394 1.826-8.733 2.675-12.801-3.598-1.624-6.438-2.904-10.664-4.81 7.237-4.345 6.955-9.47 4.422-15.177 1.911-.388 3.382-1.173 4.528-.84 10.547 3.047 21.021 6.325 31.559 9.417 1.275.378 2.803-.188 4.146.043 8.063 1.403 16.299 2.597 19.084 12.263.683 2.368 1.501 4.688 2.23 6.928 1.168.281 2.128.519 2.595.628.983 3.159 1.805 5.823 2.721 8.76 2.01.894 4.329 1.933 6.873 3.063.961 3.853 1.888 7.58 2.787 11.192-1.835.581-3.431 1.094-5.465 1.739 3.757 4.482 7.181 8.559 10.925 13.031.491-1.767.976-3.499 1.449-5.209 11.825 1.479 24.999-.552 32.451 12.108-.489 2.249-.913 4.19-1.107 5.095l-8.309 4.342c5.894 2.634 10.901 4.879 16.711 7.476a4787.88 4787.88 0 0 0 7.877-3.031c.881 2.256 1.566 4.028 2.4 6.163-2.182.345-4.01.247-5.45.936-6.113 2.929-11.893 4.174-18.086-.248-2.114-1.507-5.48-1.211-8.229-1.888-9.347-2.291-18.677-4.656-28.013-6.986-2.856-1.111-5.966-1.664-9.054-1.529-3.044.128-6.532.159-9.007 1.622-7.583 4.469-14.81 9.556-22.105 14.517-3.148 2.143-6.115 4.554-9.634 7.188 6.694 3.904 12.582 3.896 18.24 1.912 1.96 1.274 3.591 2.334 5.232 3.397 2.242-.954 4.326-1.842 6.545-2.793 2.726 2.232 5.265 4.32 8.259 6.774 4.535-6.718 9.807-5.166 13.816-2.077l11.668-6.098c.154-2.242.324-4.701.49-7.167 7.063.688 11.542.092 16.001.212 3.912.102 7.29 1.567 7.124 6.403 3.686.485 6.25 1.7 5.486 4.76 3.715 3.74 6.979 7.033 9.675 9.746-.803 3.602-1.281 5.732-1.652 7.405 13.555 3.637 25.863 9.179 36.645 17.736 1.703 1.352 1.921 4.461 3.094 6.613.945 1.732 2.282 3.243 3.673 5.168 5.269-6.129 9.696-11.271 14.159-16.464 2.736 1.374 5.716 2.879 9.266 4.672l13.385-6.995c-.025 2.569-.041 4.353-.054 6.096 1.62-.268 2.544-.422 5.248-.878a6594.616 6594.616 0 0 0-7.618 7.34c1.794 2.51 3.33 4.665 5.264 7.367l-5.472 8.292c-.107 4.733-.222 9.542-.379 16.439 2.708-2.677 3.791-3.757 5.222-5.172 6.457 1.866 13.106 3.791 19.841 5.744l-.008.061z" fill="#EFF0F2"/>
            <path fill-rule="evenodd" clip-rule="evenodd" d="m387.749 88.818.907.6h.001c.016.05.035.118.058.198.067.243.166.6.32.932.145.316.334.61.534.922.091.14.183.286.276.438.008.182.018.37.028.564.025.48.052.99.056 1.5v.032c.004.635.008 1.207-.348 1.87-.336.624-.389 1.413-.442 2.186-.015.223-.029.445-.051.66-.039.391-.003.788.025 1.104.011.12.021.228.025.319l-1.335 1.088-.975.794c-.247-.119-.583-.283-.989-.478l-.333.482-.388.562c-.271-.051-.546-.086-.818-.121-.621-.079-1.231-.157-1.754-.413-.286-.141-.461-.424-.639-.721l-.745.3.079.782.045.446.533.13.425.104.179.308.421.725a41.537 41.537 0 0 0 .475-.049l-.404.679-.247.417.314-.016.341-.018-.588 1.198-.726 1.481-.809.057-.429.03-.071-.968c-.893.152-1.345.767-1.791 1.375-.336.458-.669.911-1.185 1.16l-.192 1.007c.828.59 1.708.952 2.682 1.167.497.11.978.301 1.459.491.212.084.423.168.637.245l-.058.287-2.263.374c-.634.935-1.611.977-2.617 1.02-.597.026-1.204.052-1.756.265-.705.897-1.504 1.695-2.779 1.729l-.565.683-.037-.069-.037-.069-1.394.828-.936.555v.001c-.052-.007-.121-.02-.203-.035-.248-.044-.612-.11-.978-.117-.347-.006-.695.036-1.062.08-.167.02-.338.041-.515.058a55.542 55.542 0 0 0-.52-.22 32.769 32.769 0 0 1-1.374-.602l-.03-.014c-.574-.273-1.09-.518-1.532-1.128-.416-.574-1.103-.965-1.776-1.348a21.678 21.678 0 0 1-.573-.334c-.334-.205-.708-.346-1.004-.457-.113-.043-.214-.081-.298-.117l-.399-1.676-.291-1.223.861-.682-.287-.507-.339-.597c.164-.221.315-.454.465-.684.342-.524.677-1.039 1.135-1.398.257-.202.598-.232.952-.264.48-.043.984-.089 1.332-.566.067-.092.28-.078.568-.059.159.01.342.021.536.018l-.882-.792-.047-.041 1.189.227c.41-.417.2-.634-.018-.86-.143-.148-.29-.3-.269-.515l-.748-.296c.471-1.043.067-1.926-.504-2.784-.158-.238-.321-.475-.483-.711-.46-.67-.92-1.339-1.297-2.052-.182-.344-.317-.714-.454-1.087-.147-.404-.296-.812-.508-1.198l.026-1.55.008-.435 3.888-2.69.732-.505.363-2.15.295-.05.31-.053c.011-.303.221-.525.431-.746.292-.308.582-.615.33-1.137l1.338-1.037.781.71.671-.413.381-.234-.115-.536-.091-.428.199-.294.47-.695a18.68 18.68 0 0 0-.106-.172l-.145-.234a1055.618 1055.618 0 0 1 1.271.108l-.152-.275-.164-.3 1.334.008 1.649.01.402.701.215.375-.84.486c.525.738 1.276.877 2.018 1.014.558.103 1.111.206 1.559.562l.991-.265c.17-1.003.114-1.952-.117-2.922-.117-.496-.155-1.012-.192-1.528a25.352 25.352 0 0 0-.057-.68l.283-.072 1.322 1.874c1.118.164 1.58 1.025 2.057 1.912.283.526.571 1.061 1.003 1.466 1.114.245 2.18.616 2.766 1.75l.86.21h.001l-.047.065-.046.064c.435.286.869.574 1.352.894z" fill="#EFF0F2"/>
            <circle cx="241.039" cy="121.639" r="19" transform="rotate(27.591 241.039 121.639)" fill="#131825"/>
            <path d="M238.594 116.2v-1.3h3.58V129h-1.46v-12.8h-2.12z" fill="#fff"/>
        </g>
        <path fill-rule="evenodd" clip-rule="evenodd" d="m415.559 249.405-.89.626-.004.003-1.322.93-.042-.066-.028-.043-.015-.023-.51.724c-1.269.133-2.003.991-2.637 1.939-.534.255-1.137.328-1.73.4-1 .121-1.97.238-2.53 1.219l-2.227.549-.036.29c.219.06.436.127.654.195.494.153.988.306 1.493.377.987.139 1.892.432 2.764.956l-.114 1.019c-.495.287-.792.765-1.092 1.247-.398.641-.8 1.289-1.679 1.51l-.146-.959-.428.063-.005.001-.795.118-.609 1.533-.493 1.239.339-.044.311-.04-.215.435-.349.708.271-.049.199-.037.473.688.003.004.201.292.433.071.541.089.079.439.139.775-.945.469.478 1.624c.579-.044.758.338.939.722.13.275.26.552.538.672l-.064.308-.061.293 1.87 1.122.205.866 1.089 4.6.402.166 1.434.589c.437-.057.871-.047 1.3-.038.398.009.791.018 1.178-.026.802-.092 1.593-.276 2.383-.46h.001c.279-.065.558-.131.838-.192 1.007-.219 1.976-.273 2.776.545l.548-.589c.192.099.387.017.578-.062.289-.121.568-.237.807.296l-.141.225-.629.093-.61 1.533-.493 1.239.339-.044.312-.04-.215.435-.349.708.271-.049.115-.021.083-.016.475.69.001.002.202.292.432.071h.004l.537.089.079.439.14.775-.945.469.478 1.624c.578-.044.758.338.939.722.129.275.26.552.537.672l-.064.308-.061.293 1.871 1.122.204.866 1.089 4.6.402.166 1.434.589c.437-.057.872-.047 1.301-.038.398.009.791.018 1.178-.026.801-.092 1.592-.276 2.383-.46.279-.065.559-.131.839-.192 1.007-.219 1.976-.273 2.776.545l.547-.589c.193.099.388.017.578-.062.29-.121.568-.237.808.296l-.645 1.025.057-.029.004-.002 1.053-.531a6.169 6.169 0 0 1-.212.493c-.122.262-.212.454-.151.55.317.498.176.984.041 1.447-.099.341-.194.67-.1.982.167.558.524 1.058.888 1.567.16.224.321.449.468.682l.677-.098.579-.083c.133.43.242.788.322 1.05l1.245.175h.006l1.7.239c.064-.065.137-.146.217-.235.212-.236.479-.532.792-.769.173-.131.346-.271.519-.411.603-.488 1.217-.985 1.903-1.163.729-.19 1.145-.582 1.608-1.017l.024-.022a32.16 32.16 0 0 0 1.061-1.061l.001-.001c.135-.139.266-.274.394-.403.048-.171.091-.338.133-.5.093-.359.18-.698.313-1.018.139-.339.333-.655.465-.869.044-.071.081-.131.106-.177h-.001l-.176-1.073v-.002l-.264-1.598.079-.01.078-.009-.431-.775c.433-1.2-.02-2.235-.598-3.218.003-.592.2-1.167.393-1.732.326-.953.643-1.877.003-2.808l.475-2.244-.245-.158c-.15.17-.305.337-.46.503-.353.379-.706.757-.989 1.18-.555.829-1.213 1.516-2.064 2.073l-.868-.546c-.043-.571-.344-1.046-.648-1.526-.404-.637-.812-1.281-.628-2.169l.927.287.128-.411.241-.774-1.11-1.211-.004-.005-.902-.983-.057.171-.05.153-.099.298-.299-.382-.485-.623-.074.265v.002l-.054.193-.828.128-.352.054-.252.358-.001.002-.314.447-.432-.121-.757-.211-.008-.803c.341-.058.669-.117.904-.333.429-.393.724-.933 1.024-1.482.131-.241.264-.484.41-.718l-.382-.567-.328-.485.806-.747-.385-1.197-.526-1.64c-.087-.029-.191-.059-.307-.093-.304-.088-.687-.2-1.036-.378a20.695 20.695 0 0 0-.597-.289c-.701-.33-1.416-.667-1.875-1.207-.488-.573-1.022-.778-1.614-1.005l-.031-.012a32.61 32.61 0 0 0-1.417-.494 166.59 166.59 0 0 1-.536-.179c-.164.028-.323.06-.478.091a2.087 2.087 0 0 0-.27-.538l.476-2.244-.246-.159c-.149.171-.305.337-.46.504-.353.379-.705.757-.989 1.18-.555.829-1.213 1.516-2.063 2.073l-.869-.546c-.043-.571-.344-1.046-.648-1.526-.403-.637-.812-1.281-.628-2.169l.927.287.128-.411.242-.774-1.102-1.202-.012-.014-.902-.983-.108.324-.099.298-.298-.382-.486-.623-.073.265-.054.195-.828.128-.352.054-.252.358-.316.449-.431-.121-.757-.211-.009-.803c.342-.058.669-.118.904-.333.429-.393.724-.933 1.024-1.482.132-.241.265-.484.41-.718l-.382-.567-.327-.485.805-.747-.384-1.197-.527-1.64c-.086-.029-.191-.059-.306-.093-.304-.088-.688-.2-1.037-.378a19.433 19.433 0 0 0-.596-.289c-.702-.33-1.417-.667-1.875-1.207-.488-.573-1.022-.778-1.615-1.005l-.031-.012a32.61 32.61 0 0 0-1.417-.494l-.535-.179c-.175.03-.344.064-.509.097a7.744 7.744 0 0 1-1.052.162c-.366.022-.735-.016-.985-.041v-.001c-.083-.008-.153-.015-.205-.018v.001z" fill="#EFF0F2"/>
        <path fill-rule="evenodd" clip-rule="evenodd" d="m437.339 271.269-.904 1.641c-.481.873-.914 1.658-1.345 2.444l-.116-.07-.116-.07v.001l-.001.001c-.08.5-.161 1-.24 1.504-1.864 1.163-2.351 3.045-2.615 4.991-.634.798-1.512 1.367-2.375 1.925-1.456.943-2.868 1.857-2.992 3.798l-3.031 2.53h-.001l.165.476c.383-.072.771-.132 1.158-.192.88-.137 1.76-.274 2.594-.545 1.633-.531 3.254-.761 4.998-.609l.594 1.663c-.549.818-.647 1.782-.746 2.754-.132 1.292-.266 2.599-1.459 3.604l-.95-1.374-.611.42-.011.007-1.139.783.215 2.832.174 2.288.49-.323.003-.002.449-.297-.004.835v.004l-.005 1.356.379-.279.003-.002.28-.206 1.254.707.004.002.532.3.722-.216.905-.272.452.618.803 1.096-.493.641-.614.798c.718.785 1.302 1.423 1.966 2.151.861-.506 1.428-.05 1.998.407.408.329.818.658 1.34.635l.133.524.127.5 1.218.105 2.523.217.959 1.171c1.743 2.127 3.431 4.187 5.171 6.308l.744-.048h.004l2.661-.172c.634-.418 1.313-.731 1.984-1.04.622-.287 1.237-.57 1.803-.931 1.17-.747 2.254-1.63 3.338-2.512.383-.312.766-.624 1.153-.929 1.392-1.1 2.85-1.917 4.706-1.255l.402-1.324c.372.007.613-.267.847-.533.357-.406.699-.796 1.472-.153l-.049.455-.902.62.213 2.808.002.024.174 2.289.49-.324h.001l.003-.002.448-.297-.004.835-.005 1.36.381-.28.001-.001.28-.206 1.242.7.016.009.533.3.721-.216.009-.003.896-.269.452.618.803 1.096-.493.641-.614.798c.718.785 1.302 1.423 1.966 2.151.862-.505 1.428-.05 1.998.407.408.329.818.658 1.34.635l.133.524.127.5 1.218.105 2.523.217.959 1.171c1.743 2.127 3.431 4.187 5.171 6.308l.744-.048h.004l2.662-.172c.633-.418 1.312-.731 1.983-1.04.622-.287 1.237-.57 1.803-.931 1.17-.747 2.254-1.63 3.338-2.512.383-.312.766-.624 1.153-.929 1.392-1.1 2.85-1.917 4.706-1.255l.402-1.324c.372.007.613-.267.847-.533.357-.406.699-.796 1.472-.153l-.222 2.072.075-.098 1.223-1.612c.034.332.04.648.045.923.008.497.015.863.181.966.867.53 1.016 1.388 1.157 2.206.105.603.205 1.184.586 1.596.681.736 1.611 1.239 2.559 1.752.416.225.836.452 1.239.701l.952-.647.021-.015.833-.567 1.291 1.382 2.058-.671 2.819-.918c.05-.149.101-.328.159-.528.15-.524.339-1.184.643-1.787.169-.333.33-.679.493-1.028.564-1.21 1.138-2.443 2.065-3.237.984-.844 1.332-1.764 1.72-2.786l.02-.053c.31-.821.583-1.655.84-2.443.104-.317.205-.626.305-.923a35.905 35.905 0 0 0-.171-.875c-.128-.625-.249-1.215-.286-1.811-.04-.629.022-1.264.064-1.695.014-.143.026-.263.031-.353h-.002l-1.039-1.464-.047-.066c-.576-.813-1.095-1.543-1.614-2.273l.114-.074.003-.002.111-.072-.004-.002c-.415-.29-.829-.58-1.248-.87-.236-2.184-1.719-3.442-3.356-4.526-.442-.918-.572-1.956-.7-2.976-.215-1.721-.424-3.39-2.117-4.347l-.927-3.702-.032-.128-.5-.059c-.102.376-.216.75-.331 1.125v.001c-.26.852-.519 1.703-.638 2.573-.233 1.701-.731 3.26-1.627 4.764l-1.755-.188c-.498-.85-1.323-1.358-2.155-1.87-1.106-.681-2.225-1.37-2.61-2.881l1.65-.258-.112-.735-.211-1.377-2.638-1.037-.004-.001-.036-.015-2.102-.825.078.576v.006l.073.536-.751-.366-.003-.001-1.218-.595.085.459.002.007.023.129.04.212-1.182.821-.003.003-.503.349-.119.744-.149.933-.759.14-.016.003-1.314.241-.366-.728-.254-.508c.484-.347.946-.686 1.147-1.197.367-.933.415-1.99.464-3.066.022-.473.044-.949.093-1.421l-1.02-.588-.873-.503c.279-.724.512-1.324.683-1.764l-1.5-1.561-.004-.005c-.657-.683-1.322-1.375-2.049-2.134-.156.02-.34.052-.545.088-.537.092-1.214.209-1.889.197-.373-.006-.755-.001-1.14.004-1.335.019-2.695.039-3.813-.45-1.187-.519-2.168-.432-3.257-.336l-.056.005c-.874.078-1.744.195-2.565.306-.331.044-.653.088-.964.127-.233.169-.454.337-.67.502a3.642 3.642 0 0 0-.825-.628l-.943-3.764-.016-.066-.5-.06c-.102.377-.217.752-.331 1.127-.26.852-.519 1.703-.638 2.573-.233 1.701-.731 3.26-1.627 4.764l-1.755-.188c-.498-.851-1.323-1.358-2.155-1.871-1.106-.68-2.225-1.369-2.611-2.881l1.651-.257-.112-.735-.211-1.377-2.643-1.039-2.137-.839.078.579v.003l.002.015.071.521-.752-.367-.009-.004-1.212-.592.087.464v.003l.064.341-1.183.822-.002.002-.503.349-.119.744-.149.933-.759.14-1.33.244-.366-.728-.254-.508c.484-.347.946-.687 1.147-1.197.367-.933.415-1.99.464-3.066.022-.473.043-.949.092-1.421l-1.019-.588-.873-.503c.279-.724.512-1.324.683-1.764l-1.5-1.561-.005-.005-2.048-2.134c-.156.02-.34.052-.544.087h-.001c-.537.093-1.214.21-1.889.198-.374-.006-.756-.001-1.14.004-1.335.019-2.695.039-3.813-.45-1.187-.519-2.168-.433-3.257-.336l-.056.005c-.874.078-1.744.195-2.565.306h-.001c-.33.044-.652.088-.963.127-.248.18-.484.359-.713.535-.507.387-.986.752-1.506 1.045-.549.31-1.148.531-1.554.68-.135.05-.248.091-.332.126l.001.002zM1069.8 530.39v.022c.35.936.66 1.777.97 2.617-.04.014-.08.028-.13.042l-.12.042v.001c.32.388.65.777.98 1.166-.34 2.171.76 3.771 2.06 5.243.19 1.001.05 2.037-.09 3.055-.24 1.718-.48 3.384.91 4.748-.02 1.467-.05 2.707-.07 3.947v.001l.47.187c.2-.337.4-.67.61-1.002.47-.755.95-1.51 1.29-2.319.66-1.582 1.55-2.958 2.8-4.178l1.65.638c.26.95.93 1.655 1.6 2.366.89.944 1.79 1.9 1.77 3.46-.6-.064-1.14-.123-1.66-.18l-.08.737-.01.013c-.06.529-.11 1.009-.15 1.373.81.601 1.56 1.155 2.28 1.69l1.85 1.366c.02-.178.04-.351.07-.583v-.004c.02-.148.05-.32.07-.533l.63.549c.35.301.67.585 1.03.893.01-.173.02-.329.04-.469v-.004c.01-.128.01-.243.02-.346l1.36-.486v-.002l.58-.206.31-.687c.13-.31.26-.589.38-.863l.77.062c.5.042.94.077 1.35.11l.16.792.2.986 2.92-.08c.18-.982.89-1.113 1.61-1.245.52-.094 1.03-.189 1.36-.598.17.087.33.169.48.241v.001l.46.231.88-.853 1.81-1.766 1.52.04 8.15.215.45-.594.01-.013c.52-.69 1.06-1.404 1.6-2.117.1-.752.31-1.47.51-2.18.19-.658.38-1.309.48-1.973.2-1.373.24-2.771.28-4.168.02-.493.03-.987.05-1.48.08-1.772.42-3.409 2.13-4.38a52.46 52.46 0 0 0-.74-1.171c.25-.276.2-.637.15-.989-.07-.535-.14-1.049.85-1.213l.31.335c-.04.415-.08.789-.12 1.087.81.595 1.55 1.145 2.27 1.675l.02.015c.62.465 1.23.914 1.84 1.365.02-.178.05-.351.08-.582v-.004c.02-.148.04-.32.07-.533l.63.548c.34.302.67.586 1.02.894.01-.174.03-.331.04-.471v-.002c.01-.129.02-.244.03-.346.46-.166.91-.329 1.34-.482l.01-.006.58-.207.31-.686v-.009c.14-.307.26-.583.38-.854l.77.062c.51.041.94.077 1.35.109l.16.793.21.986c1.06-.03 1.92-.054 2.91-.08.18-.982.9-1.113 1.61-1.245.52-.094 1.04-.189 1.36-.598.18.087.34.169.48.242.19.095.35.174.47.23l.87-.852 1.82-1.766 1.51.04 8.15.214.45-.594.01-.003c.52-.693 1.06-1.41 1.61-2.126.09-.752.3-1.471.51-2.18.19-.658.38-1.309.47-1.973.2-1.374.24-2.771.29-4.168.01-.494.02-.988.05-1.48.07-1.772.41-3.41 2.13-4.38-.25-.393-.5-.785-.74-1.171.25-.277.2-.638.15-.989-.08-.536-.15-1.05.85-1.213l1.42 1.523-.03-.121-.42-1.98c.28.192.52.394.73.57.38.319.66.554.85.495.97-.31 1.71.139 2.42.567.53.316 1.03.62 1.59.601 1.01-.033 2-.408 3-.79.45-.167.89-.336 1.34-.478.05-.373.09-.752.14-1.144v-.026l.12-1c.77-.031 1.41-.055 1.89-.073.28-.679.56-1.334.83-1.995.37-.876.75-1.763 1.15-2.733-.08-.136-.18-.292-.29-.465v-.001c-.3-.456-.68-1.031-.93-1.655-.14-.346-.3-.694-.46-1.045v-.001c-.54-1.217-1.1-2.458-1.1-3.678.01-1.297-.46-2.163-.98-3.124l-.03-.05c-.41-.771-.87-1.523-1.29-2.233-.18-.286-.34-.564-.5-.835-.27-.156-.52-.301-.78-.442-.55-.312-1.08-.607-1.55-.968-.5-.381-.94-.844-1.24-1.157-.1-.104-.19-.192-.25-.255v.001l-1.79-.171-.08-.008-2.77-.266c0-.044.01-.089.01-.134l.01-.003c0-.044.01-.088.01-.131v.001l-1.48.375c-1.8-1.25-3.72-.952-5.61-.422-.99-.266-1.86-.847-2.71-1.417-1.45-.963-2.84-1.897-4.68-1.242-1.26-.638-2.33-1.181-3.4-1.72l-.12-.06-.37.34c.22.323.42.655.63.986v.001c.48.754.95 1.507 1.53 2.166 1.14 1.288 1.99 2.685 2.54 4.346l-1.29 1.205c-.97-.179-1.89.112-2.82.407-1.24.391-2.49.787-3.89.09.32-.506.61-.971.89-1.417l-.63-.396c-.46-.285-.87-.545-1.18-.741-.9.468-1.72.901-2.51 1.317l-.01.002-.03.018-2 1.05c.15.098.29.192.49.318v.004c.13.082.27.177.45.296l-.76.328-.01.001c-.42.179-.81.349-1.24.533.14.087.28.165.4.235l.01.004a.8.8 0 0 0 .11.066c.07.039.13.076.19.109-.06.494-.11.979-.16 1.431v.005l-.06.608.48.577c.22.26.42.494.61.723l-.39.665-.01.015c-.25.431-.47.804-.67 1.152l-.79-.2-.55-.14c.05-.594.09-1.165-.16-1.651-.47-.888-1.23-1.615-2.02-2.357-.34-.325-.69-.653-1.01-.999l-1.11.387-.95.331c-.37-.684-.67-1.253-.89-1.67l-2.16.113-.01.001-2.95.154a6.23 6.23 0 0 0-.29.469c-.28.467-.64 1.055-1.09 1.558-.25.278-.49.571-.74.865-.86 1.022-1.74 2.063-2.84 2.589-1.17.559-1.74 1.358-2.38 2.245l-.03.045c-.52.712-1 1.447-1.45 2.141-.18.279-.36.551-.54.812-.02.286-.04.564-.05.836-.33.019-.67.086-1.02.212-1.31-.661-2.42-1.22-3.52-1.779l-.37.339c.21.324.42.656.63.988.48.753.95 1.506 1.53 2.165 1.13 1.288 1.99 2.685 2.54 4.347l-1.29 1.204c-.97-.179-1.89.113-2.83.407-1.23.391-2.49.787-3.88.09.31-.506.6-.97.88-1.417l-.63-.399-.01-.006-1.17-.732c-.89.469-1.71.902-2.51 1.319l-.02.01c-.68.36-1.35.708-2.01 1.058l.25.169c.08.047.15.097.24.153.12.082.27.178.45.296l-.77.328-.02.009c-.41.177-.8.344-1.23.525l.41.239c.11.066.21.124.3.176-.05.495-.1.982-.15 1.435l-.06.609.48.576c.22.26.42.494.61.723l-.39.664v.004c-.26.437-.48.814-.69 1.164l-.79-.2-.55-.14c.06-.594.1-1.165-.15-1.65-.47-.888-1.24-1.616-2.02-2.357-.34-.326-.69-.654-1.01-.999-.37.126-.73.254-1.12.387l-.95.33-.88-1.669-2.17.113c-.94.05-1.9.1-2.96.154l-.29.469c-.28.467-.63 1.056-1.08 1.558-.25.279-.5.571-.75.866-.85 1.021-1.73 2.063-2.83 2.589-1.17.559-1.75 1.357-2.38 2.244l-.04.046a56.61 56.61 0 0 0-1.44 2.14v.001c-.19.278-.36.551-.54.812l-.06.889c-.04.636-.08 1.237-.19 1.822-.13.619-.35 1.216-.51 1.621-.05.134-.09.247-.12.333v.001c.23.622.45 1.194.65 1.734z" fill="#EFF0F2"/>
        <g clip-path="url(#mqry88tgrd)">
            <path d="M1114.55 416.965c1.42-3.246 2.58-5.941 3.93-9.042-.38-1.914-.87-4.349-1.55-7.716l-5.87 2.754c-1.09-3.275 1.31-4.857 3.59-6.017 4.01-2.054 5.67-5.201 6.11-9.549.3-2.907 1.37-5.732 2.06-8.601 1.06-4.356 2.43-8.673 3.02-13.092.49-3.678.06-7.48.04-11.546-4.91-4.287-3.61-11.681-6.9-17.936-2.88 2.333-5.25 4.249-8.05 6.52-1.45-.93-3.1-1.982-4.28-2.736l2.89-9.561c1.27.702 2.2 1.283 3.19 1.742.97.452 2.01.783 3.2 1.238.03-1.838.04-3.054.05-3.623-3.08-1.055-5.7-1.949-8.32-2.844-1.36-6.473-3.36-12.375-6.2-17.841-1.48-2.871-2.1-5.183.03-7.15 2.79-1.827 5.57-3.652 7.83-5.131.16-10.413-.34-11.536-5.76-17.707-1.91-2.169-3.28-4.806-4.12-6.058 1.92-5.759 3.41-10.233 5.24-15.732.71.812 1.38 1.584 2.05 2.359 2.1-4.379 2.06-7.932-.66-11.324-1.26.051-2.46.097-3.88.149-.46-1.503-.88-2.84-1.37-4.428 1.95-.452 3.53-.812 5.06-1.164-.14-8.297-1.91-15.763-9.9-20.128-3.19 1.811-6.5 3.686-10.3 5.845-.33-2.073-.54-3.387-.73-4.563-1.85-.502-3.32-.898-5.48-1.484 1.48-.957 2.22-1.439 3.13-2.029-.25-2.08-.5-4.115-.75-6.113-2.09-1.436-4.13-2.834-6.29-4.319 1.02-2.623 1.95-4.976 2.88-7.362-4.24-1.11-8.61 2.846-13.71.059 1.63-3.455 2.23-6.833 5.04-9.975 3.21-3.603 7.33-7.431 6.75-13.252 3.44 1.168 6.89 2.343 10.81 3.677.93-2.292 1.55-3.826 2.1-5.178-1.55-1.81-2.6-3.025-3.26-3.799.41-3.262.75-5.923 1.13-8.887-.95-.7-2.1-1.543-3.52-2.599-1.71 1.242-3.35 2.444-5.34 3.899-1.57-1.067-3.26-2.217-4.68-3.186-.89-5.146-1.7-9.831-2.46-14.145 1.78-1.356 2.91-2.221 3.88-2.969-.79-3.651-1.5-6.916-2.22-10.18-.16.126-.31.25-.47.371-1.5-2.402-3-4.807-4.45-7.113l2.28-2.086c-4.52-3.809-1.08-8.372-1.93-12.516l3.7-1.736c2.96 1.633 5.8 3.419 8.83 4.822 5.11 2.374 10.45 2.286 15.6.279 1.73-.668 4.52-2.84 4.3-3.545-1.53-4.94 3.96-6.841 4.19-11.196l-4.54-9.68c-.85-.24-1.81-.509-2.85-.804-.4-1.413-.79-2.826-1.22-4.363 2.41.103 4.41.19 6.11.266.08-3.336.15-6.088.22-8.664 2.56.097 4.18.163 5.87.227.13-2.628.25-4.822.4-7.852-3.46-1.293-7.19-2.716-10.94-4.076-4.35-1.57-7.49 3.182-11.82 2.587-1.25-1.905-2.38-3.64-3.52-5.377-.17.303-.34.6-.52.904-2.98-1.166-5.97-2.332-9.58-3.743-.54-5.53.59-11.96-6.07-15.156-.34.275-.98.8-1.65 1.34-6.16-3.987-9.37-12.704-18.11-11.802-2.11-1.884-3.8-3.39-5.5-4.907-2.08 1.254-3.81 2.293-5.31 3.203-1.41 2.055-2.73 3.995-4.42 6.461-3.73-5.176-7.15-9.315-9.85-13.887-1.97-3.33-4.08-5.864-6.82-6.268-3.58 2.573-6.4 4.593-8.45 6.066-1.28 3.658-2.34 6.693-3.48 9.936-2.24-.949-3.562-1.506-5.097-2.157 1.398-4.727 2.707-9.15 3.927-13.267-3.194-2.411-5.846-4.422-8.79-6.645-1.156.408-2.505.89-3.69 1.311-.408 1.667-.75 3.064-1.108 4.539-3.662-.93-4.433-3.158-3.405-7.059 3.567-1.288 7.383-2.664 11.228-4.054-3.607.853-6.38-1.364-9.028-3.242l-4.379.462c-2.465 2.866-4.876 5.66-7.153 8.302-5.534-.47-10.057.904-13.99 5.065l4.409 5.742c-.256 1.432-.53 2.949-.927 5.148l-6.733-7.749c-3.004 2.063-5.566 3.825-8.367 5.751a35359.22 35359.22 0 0 1-17.579-3.242c1.425-4.087-3.714-7.544.074-11.666 2.324 2.69 4.461 5.157 6.764 7.816 5.618-.396 10.916-.765 15.805-1.11 1.17-2.456 1.978-4.165 2.668-5.615 4.025-1.889 7.574-4.58 11.419-5.113 5.549-.766 8.865-3.383 10.508-7.665 5.653-2.186 12.093.439 16.444-5.131-1.493-3.593-2.911-7-4.386-10.553-4.788 1.056-9.477 2.09-14.879 3.283-1.787-.801-4.133-1.847-5.861-2.622-4.335 2.67-8.164 5.026-11.794 7.26l-3.197-1.58c.02 2.23.038 3.849.042 4.652-2.288 2.905-4.086 5.19-6.328 8.044-.189-.005-1.441-.036-2.557-.066l-1.236-2.634c.998-5.17 2.13-9.895 2.741-14.684.36-2.812.17-5.767-.27-8.582-.766-4.902-2.053-9.758 1.585-14.387a1427.59 1427.59 0 0 1-2.789-.587c-.945 2.363-1.812 4.52-2.673 6.673l1.126.498c-2.014 1.949-4.031 3.892-6.214 6.001-1.233-.489-2.592-1.023-3.995-1.578-.031-2.266-.06-4.341-.085-6.435-1.894-.803-3.645-1.539-5.304-2.242l-2.824-6.018-.546.466-4.736-4.999c2.287-1.44 3.744-2.351 6.453-4.06-3.335-.658-5.19-1.018-7.043-1.386-3.815-5.36-9.899-7.785-15.152-11.322-1.586.534-3.178 1.071-5.136 1.733-1.429-1.79-2.82-3.524-4.252-5.32 1.693-2.421 3.077-4.406 4.547-6.52 2.582 1.251 4.594 2.232 6.797 3.298l3.459-5.058c-.889-1.636-1.732-3.195-2.131-3.935-3.886 1.415-7.171 2.618-11.148 4.064-.674.812-1.875 2.268-3.022 3.652-2.33.405-4.52.785-7.04 1.22.215-2.725.4-5.116.574-7.268-4.448-1.722-8.509-3.293-12.388-4.798-2.076 1.907-4.242 2.642-6.497 2.203-.546-1.698-1.079-3.356-1.612-5.001.419-1.258.91-2.737 1.415-4.245-1.045-.438-1.627-.683-2.981-1.244l-2.365 6.843c-.709.205-1.856.533-2.793.798-3.82-4.275.641-7.995-.503-12.235 3.542-1.936 6.917-3.782 11.455-6.267.323-.904 1.135-3.151 2.006-5.584 1.046.128 2.317.278 3.196.384.501 4.986 1.047 9.454 1.386 13.944.395 5.256 3.595 8.695 8.702 9.076 5.049.378 8.88-2.644 10.01-7.794 1.333-6.085 2.734-12.15 3.977-17.643-.636-5.459-1.222-10.486-1.917-16.43 1.51 1.49 2.218 2.19 2.931 2.888.228-.084.455-.172.684-.256l-5.358-11.421c1.739.835 2.25 1.079 3.242 1.553-.153-.874-.296-1.664-.484-2.736 2.198 1.529 3.466 2.404 5.203 3.607 1.067-4.962 2.034-9.441 3.091-14.335l-4.559.302c.197-1.743.39-3.42.49-4.325-1.649-2.061-2.936-3.673-3.747-4.681-3.205-.153-5.92-.285-9.061-.439-.708-2.38-1.34-4.51-2.013-6.778-.81 1.22-1.559 2.347-2.31 3.47-.358-.019-.724-.04-1.082-.058l-.501-6.426c-1.28 1.102-2.67 2.303-3.873 3.345-4.799.152-4.124-4.65-6.541-6.421-3.624-1.146-7.193-2.277-11.358-3.595-.963.557-2.493 1.437-4.036 2.325l-1.858-2.803-14.5-1.555c-.402 1.232-.696 2.123-1.333 4.072-4.333-7.346-9.913-1.076-15.622-1.484l1.724-3.101c-.983-.093-1.992-.191-3-.29-.144.75-.282 1.463-.241 1.239-3.946-.639-7.538-1.222-12.274-1.993-1.998-1.349-5.102-3.439-8.831-5.953-1.097-.063-3.024-.18-4.996-.293-.68.874-1.515 1.954-2.936 3.775-.556-2.329-.892-3.729-1.307-5.447a385.351 385.351 0 0 1-2.619 1.404c.582 2.62 1.108 5.01 1.636 7.392-.374.135-.746.275-1.115.407-1.251-2.056-2.503-4.104-3.84-6.306-1.365.944-2.564 1.769-3.547 2.446l2.784 4.392-6.696-1.553c-2.254 1.25-4.152 2.303-6.408 3.56-1.184 2.897-1.13 5.599.164 8.107 3.172 1.317 6.284 2.604 9.775 4.052 1.386-.353 3.278-.833 5.168-1.317-6.806 5.311-11.201 12.389-16.914 18.114l-6.645 3.118c.435 1.4.682 2.188 1.157 3.709 4.278-2.543 5.691 1.501 7.528 2.954 3.095.543 5.47.957 7.707 1.348 2.639-3.128 5.729-3.989 9.668-2.903 3.597.99 7.331 1.489 11.144 2.232 1.096-2.859 2.051-5.337 3.373-8.786 7.372-4.737 13.928-5.683 22.522-1.736 3.158 1.446 6.478 2.543 9.526 3.719 3.742-4.718 8.016-2.658 11.388-2.444 2.864 3.282 5.338 6.467 3.611 11.016l-4.767 1.513-23.262-5.161c-3.841 2.642-5.965 5.138-9.719 6.176-2.849.788-4.952 4.3-7.368 6.624-.077.071.094.399.277 1.112 1.202-.447 2.256-.836 3.822-1.414-1.533 3.321-1.103 5.418 1.571 7.773 3.381 2.981 5.885 6.962 8.28 9.916l-1.324 6.302a6624.796 6624.796 0 0 1-8.66-4.458c.027-6.109-3.083-10.762-9.411-12.774.403-.831.645-1.324 1.041-2.133-1.261-.051-2.223-.089-3.477-.137.563 1.871.982 3.273 1.215 4.044-.85 1.694-1.434 2.86-2.295 4.582-2.153.135-5.25 5.083-8.314-.129.989-2.045 1.895-3.905 2.775-5.723-7.215-4.338-12.049.911-16.179 3.758-3.506-2.152-5.974-3.671-8.701-5.343.21-1.779.428-3.613.699-5.881-3.81-2.628-7.615-5.241-11.337-7.805.199-2.322.435-5.115.659-7.757-1.618-1.324-3.072-2.508-4.274-3.49l1.032-6.142c7.389-3.671 7.474-3.687 12.632-2.503 1.181-3.882-.11-6.613-3.872-8.192-2.36 1.673-4.723 3.336-7.558 5.337l-2.127-.332c-1.394 1.978-2.523 3.575-3.804 5.395-2.966-3.414-5.36-6.614-8.241-9.286-1.448-1.345-3.933-2.664-5.697-2.384-5.694.892-9.683-2.014-13.995-5.164-4.194 2.288-6.977-1.393-10.511-2.622-.7-1.841-1.361-3.585-2.107-5.562-.913.778-1.787 1.527-2.807 2.396l-2.793-1.513c-.767-2.964-1.398-5.38-2.043-7.872-1.328.489-2.245.82-3.199 1.175-.304 15.377-6.587 19.328-18.855 19.771-1.505-4.252-3.052-8.817-4.737-13.328-1.543-4.147-2.762-8.585-8.055-10.593-2.439 1.827-4.82 4.361-7.749 5.601-3.149 1.332-6.814 1.453-9.669 1.994-2.423 2.146-4.527 4.002-6.739 5.962l2.514 5.359-1.409 4.779c2.865 3.806 5.364 7.119 8.64 11.478l8.709 3.147c9.164-5.967 14.382 1.127 20.357 4.191 2.77-2.414 5.421-3.576 8.571-.877.312 2.653.625 5.335.934 7.92 3.377 2.236 6.697 4.429 10.232 6.766.086 1.575.179 3.229.238 4.362-3.989 6.117-6.947 11.833-6.939 19.074.011 8.278-3.116 11.57-9.982 13.31 2.016.256 4.032.512 5.689.726 1.476-1.294 2.512-2.206 3.444-3.028 1.627 1.092 2.884 1.931 4.38 2.932.663-5.175 1.278-9.955 1.981-15.383 1.122-1.25 2.651-2.953 3.659-4.073.857-2.613 1.501-4.571 2.107-6.413l6.093-2.491c1.123 1.374 2.015 2.467 3.023 3.697-1 .778-1.992 1.547-2.84 2.201l2.917 2.027c-2.294 2.72-4.285 5.078-6.274 7.44.368.137.735.273 1.098.412-1.247 5.672-2.499 11.345-3.73 16.94-2.305.457-3.898.778-5.244 1.042-3.179 5.184-8.353 9.723-4.243 15.995 2.571-1.643 5.291-3.38 8.402-5.365.239 1.854.391 3.06.574 4.444 1.575.386 3.163.773 5.236 1.276.602 2.937 1.212 5.929 1.937 9.462-2.066-.226-3.468-.38-3.948-.434-2.087 1.72-3.658 2.97-5.184 4.28-1.579 1.36-3.114 2.774-4.539 4.05-.092 4.902-.193 9.598 4.277 12.61l-.383 7.389c1.907 1.666 3.921 3.422 5.898 5.148-.142 1.303-.269 2.535-.392 3.654-2.463 1.488-4.77 2.886-7.783 4.708-5.008-2.235-10.953 2.339-16.45-.787-1.139-3.659-2.198-7.047-3.473-11.132a8257.99 8257.99 0 0 1-5.603-4.546c-1.171-8.935-2.398-18.263-3.801-28.95-.669-.531-2.437-1.924-4.406-3.473-3.401 2.721-6.657 4.423-8.906 1.034-.356-4.103-.834-7.174-.819-10.249.009-1.946.504-3.987 1.218-5.809 1.218-3.109 1.635-6.063.142-9.207-2.038-4.293-1.455-8.597.221-13.017 1.968.552 3.77 1.06 5.245 1.47 2.327-1.494 4.327-2.776 6.783-4.354.011-.735.033-2.18.031-2.395-1.922-3.164-3.387-5.206-4.463-7.437-2.156-4.471-4.023-9.294-6.704-13.244-3.888-5.724-9.498-10.272-14.375-15.322l-.533.519-4.36-9.294c.408-1.742.799-3.431 1.299-5.561-7.166 2.703-12.497.217-16.869-4.241-4.497.996-9.486-1.744-12.163 3.677-4.98-2.546-10.989-2.2-13.171-7.149-4.244-.878-7.739-1.601-11.231-2.319.009.13.01.258.019.388-7.095-.451-14.187-.897-22.17-1.404 2.857 3.244 1.463 4.301-.459 5.325-2.445 1.304-4.821 2.729-8.059 4.58-3.183.35-7.447.823-11.86 1.313-.804.96-1.575 2.797-2.723 3.073-3.398.813-4.178 2.818-4.907 6.001-.928 4.052-2.666 8.168-5.042 11.569-2.227 3.186-4.298 6.007-4.563 10.103-.201 3.116-1.242 6.206-2.154 9.235-.996 3.308-1.053 7.015 1.502 8.931 5.619 4.206 7.494 9.981 8.608 16.446.686.53 1.323 1.065 2.005 1.538 5.134 3.57 8.658 8.496 11.683 13.849 2.704 4.78.353 8.274-3.08 11.238 3.148 4.671 5.554 9.101 2.848 15.206-2.654.51-6.075.243-8.14 1.784-2.706 2.027-5.063 1.89-8.453.868-2.741 6.017-5.401 11.86-8.302 18.22-5.367 4.624-11.18 9.638-17.653 15.212-2.425-.21-5.498-.307-8.518-.763-7.281-1.098-16.304 3.49-20.831 9.395-3.596 4.69-6.507 10-12.454 12.976-4.916 2.464-9.337 6.504-13.013 10.69-4.367 4.977-7.705 10.854-11.227 15.965-10.061 3.956-8.174 4.261-9.232 9.663 3.281 5.29 6.45 9.993 9.175 14.932 2.109 3.822 4.746 6.983 8.622 8.915 8.082 4.036 17.045 4.952 25.703 6.909 1.332.302 2.924-.147 4.299-.559 2.523-.764 4.972-1.76 7.241-2.58l8.989 6.876c5.013-3.49 9.525-6.627 14.278-9.936 6.874 3.127 14.31 5.389 19.43 11.03 2.857.071 5.177.132 6.216.158 5.638-2.978 10.291-5.441 15.345-8.11-.172-8.085 11.012-5.37 11.915-12.321 11.877-1.501 22.751 1.335 32.307 6.599 9.148 5.04 18.265 8.596 28.563 8.553 5.682-.024 11.893 2.113 16.662-2.282-4.983-6.866-9.878-13.605-14.271-19.663.661-5.005 3.805-6.148 6.733-7.492.993 2.876 1.954 5.72 5.164 7.066.872.367 1.453 1.419 2.184 2.143 4.847 4.836 9.694 9.672 14.555 14.513 1.534.161 2.988.314 4.802.5 1.979 2.49 4.051 5.105 5.618 7.076 4.299 2.066 8.011 3.848 11.72 5.624 2.433-.26 4.677.285 6.938.776 2.434.526 4.879 1 8.186 1.671.705-5.533 1.367-10.785 1.973-15.56 2.054-1.104 3.364-1.806 4.408-2.366-3.124-1.462-7.429-2.184-9.218-4.692-1.609-2.26-6.33-4.304-3.985-8.07 2.326-1.47 4.133-2.616 7.136-4.52-2.762.578-4.073.855-5.383 1.132-.208-.282-.416-.564-.62-.847 1.565-1.65 3.132-3.295 5.185-5.46 1.605-4.76 4.876-9.188 9.755-13.11l3.997 8.519a8791.056 8791.056 0 0 1-5.221 6.998c-.678 3.976-1.202 7.074-1.899 11.157 1.682 1.72 3.808 3.89 6.526 6.662-.994 1.983-2.148 4.286-3.555 7.08.889 10.783 6.585 20.51 12.268 29.679-2.262 5.483-4.246 10.281-6.353 15.387-.199.023-.974.125-1.785.225a4650.8 4650.8 0 0 1-2.772 6.958 4835.13 4835.13 0 0 1 7.463 3.761c-8.114 4.996-16.042 9.568-22.109 16.69-6.047 7.101-12.759 13.633-18.487 21.663 4.782 1.291 8.745 2.366 13.027 3.524 5.936-2.132 12.088-4.336 17.878-6.416 7.308 7.373 18.433 7.053 25.624 13.851 1.807-.462 3.407-.869 4.857-1.234 8.368 9.256 10.231 12.097 10.271 15.812-1.509.912-3.132 1.889-4.243 2.556-2.385 3.295.773 7.739-3.547 10.005-3.2 1.683-6.205 3.745-9.923 6.027.363 3.632 4.065 4.847 8.325 6.132-4.155 4.259-7.424 8.855-11.815 11.767-4.633 3.078-10.332 4.544-15.946 6.875-.694 9.325-10.368 12.004-14.519 19.119-.299 3.167-.593 6.368-.951 10.205 4.198-3.172 7.629-5.767 12.349-9.335.314-2.264.237-6.183 1.519-9.59 1.253-3.335 3.888-6.147 6.544-10.122 4.308-1.671 9.75-2.504 16.571-1.89-1.78 1.914-2.595 2.787-3.61 3.881 4.143 5.884-4.365 9.917-1.914 15.439-1.805 1.087-3.211 1.933-5.297 3.192l18.115 9.769c3.607-2.469 6.876-4.702 9.303-6.366 2.997-6.679 5.586-12.437 8.422-18.749 4.59 1.404 8.707 2.658 12.385 3.784l2.992 6.377c-.773.801-1.605 1.663-2.815 2.913a920.4 920.4 0 0 0 3.881.962c5.473 5.598 10.112 10.339 15.935 16.298 6.418 7.091 17.655 3.802 28.046 7.203.626-.171 2.398-.646 4.281-1.156.187-.56.452-1.14.564-1.746.134-.734.129-1.49.274-3.431l2.442 3.066c4.796-4.746 11.228-8.068 12.445-16.005 3.258.256 6.505-.357 9.061 3.039 1.347 1.789 3.991 2.602 6.43 4.082-.6-3.031-1.05-5.282-1.387-6.996l-5.221-5.769c1.586-.312 2.372-.465 3.176-.627.02-1.438.037-2.992.077-5.705 6.03 2.373 11.383 4.482 17.263 6.797l-.114 4.592c-2.659.04-4.797.069-7.579.108 3.254 3.204 5.808 5.727 8.519 8.398-1.438.926-2.029 1.308-2.643 1.701.655.824 1.14 1.436 1.718 2.157l-6.079 1.552c-.21 2.151-.396 4.006-.558 5.698l-11.708 5.492c.955 4.621 4.773 5.735 7.681 7.829l7.051-3.308c1.926-3.365 4.053-7.087 6.365-11.135 4.781.767 8.817 7.068 14.131 3.513l9.523 3.926c-.637 6.435 1.309 8.695 8.249 10.134 8.648 1.799 17.262 3.561 26.088 4.384 3.3.307 6.13.186 9.214-1.074 4.081-1.67 8.174-4.098 12.935-2.354 2.345 2.872-.154 4.57-1.948 5.47-3.376 1.694-7.152 2.585-10.69 3.983-1.436.569-2.699 1.581-4.04 2.391 3.621.383 7.306-.937 8.858 2.855 6.808-4.722 13.313-9.244 19.587-13.599-.475-.279-1.527-.882-2.587-1.499-1.508.317-3.028.633-5.174 1.08.414-1.728.641-2.674.878-3.672 1.287.195 2.332.358 3.149.482.82-3.225 1.629-6.41 2.386-9.396l-7.745-3.902c5.498-2.988 5.452-6.793 3.757-11.101 1.428-.227 2.542-.761 3.38-.478 7.715 2.593 15.368 5.354 23.074 7.979.932.321 2.082-.049 3.069.164 5.928 1.296 11.989 2.442 13.745 9.691.431 1.775.963 3.52 1.432 5.202.856.246 1.559.452 1.902.548.628 2.371 1.155 4.371 1.735 6.575 1.46.726 3.15 1.569 5 2.487.58 2.885 1.15 5.675 1.7 8.379-1.37.372-2.57.701-4.1 1.114 2.64 3.439 5.05 6.568 7.68 10 .42-1.294.83-2.561 1.24-3.812 8.71 1.471 18.53.387 23.65 10.001-.44 1.65-.81 3.074-.98 3.739l-6.3 2.951c4.29 2.139 7.92 3.961 12.14 6.07 1.4-.466 3.55-1.192 5.93-1.995.58 1.699 1.04 3.033 1.59 4.641-1.63.186-2.98.056-4.07.52-4.62 1.975-8.94 2.713-13.39-.759-1.52-1.184-4.02-1.072-6.03-1.661-6.85-1.994-13.69-4.043-20.53-6.066-2.08-.914-4.362-1.422-6.654-1.42-2.258-.002-4.842-.09-6.722.914-5.758 3.069-11.272 6.607-16.831 10.049-2.4 1.488-4.674 3.179-7.364 5.018 4.834 3.104 9.195 3.286 13.448 1.996 1.412 1.007 2.586 1.844 3.767 2.684 1.691-.636 3.263-1.228 4.937-1.861 1.948 1.74 3.761 3.367 5.901 5.28 3.572-4.831 7.428-3.514 10.298-1.099l8.83-4.145c.19-1.656.39-3.472.6-5.293 5.2.735 8.54.435 11.84.667 2.89.199 5.35 1.392 5.07 4.969 2.72.476 4.58 1.458 3.91 3.7 2.64 2.889 4.95 5.431 6.86 7.527l-1.46 5.432c9.93 3.125 18.87 7.622 26.58 14.303 1.22 1.056 1.28 3.365 2.08 4.997.65 1.312 1.59 2.475 2.56 3.945 4.09-4.372 7.54-8.04 11.01-11.745 1.98 1.106 4.14 2.315 6.71 3.756l10.13-4.755c-.09 1.902-.16 3.223-.23 4.513 1.21-.147 1.9-.231 3.92-.483a2583.68 2583.68 0 0 0-5.88 5.194c1.25 1.917 2.32 3.561 3.67 5.624-1.41 1.942-2.85 3.938-4.32 5.968-.23 3.502-.47 7.061-.8 12.165 2.09-1.897 2.93-2.663 4.03-3.665 4.72 1.587 9.59 3.225 14.51 4.886l-.01.045z" fill="#EFF0F2"/>
            <path fill-rule="evenodd" clip-rule="evenodd" d="m595.098 214.024.621.577.003.003.922.855-.043.043-.044.044h.001l.634.27c.306.946 1.079 1.366 1.904 1.695.281.366.434.814.585 1.254.254.742.501 1.462 1.339 1.73l.778 1.607.227-.019c.011-.177.027-.353.043-.53.036-.401.073-.802.045-1.198a5.59 5.59 0 0 1 .281-2.261l.794-.078c.3.33.712.479 1.128.629.552.2 1.111.401 1.422 1.035l-.708.267.119.317.219.588 1.266.216 1.025.175-.089-.251-.081-.231.366.094.596.151-.081-.198-.001-.001-.059-.145.447-.472.001-.002.191-.201-.016-.341-.02-.427.321-.131.569-.232.51.644 1.16-.627c-.127-.434.135-.633.398-.833.189-.143.378-.287.425-.518l.245-.001h.001l.232-.001.552-1.607.625-.296.01-.004 3.319-1.571.061-.334.216-1.187c-.114-.323-.176-.656-.239-.984a6.524 6.524 0 0 0-.211-.893c-.199-.596-.468-1.169-.736-1.741a47.65 47.65 0 0 1-.282-.608c-.33-.732-.529-1.461-.035-2.203l-.537-.322c.044-.162-.049-.298-.141-.43-.139-.201-.272-.394.095-.663l.194.071.173.464 1.254.214.012.002 1.024.175-.088-.251-.082-.231.367.093.596.152-.081-.197-.001-.002-.06-.145.449-.474.191-.201-.016-.341-.02-.427.321-.131.569-.232.51.644 1.16-.628c-.128-.433.134-.632.397-.832.189-.143.379-.287.426-.518l.245-.001h.003l.23-.001.551-1.607.626-.296.017-.008 3.312-1.567.061-.334.216-1.187a6.62 6.62 0 0 1-.239-.984c-.058-.305-.115-.606-.211-.893-.2-.596-.468-1.169-.737-1.741a54.914 54.914 0 0 1-.281-.608c-.33-.732-.529-1.461-.035-2.203l-.537-.322c.044-.163-.05-.298-.141-.43-.139-.201-.273-.395.094-.663l.886.325-.03-.037-.002-.002-.577-.719c.15.022.289.054.41.082.219.05.381.088.444.026.328-.323.721-.294 1.095-.266.276.02.542.04.765-.082.398-.218.72-.572 1.049-.931.145-.158.29-.318.444-.467l-.184-.5-.157-.428c.306-.171.561-.312.748-.415l-.069-.977-.001-.006-.093-1.332c-.06-.038-.133-.08-.214-.127h-.001c-.213-.124-.482-.279-.713-.479-.128-.111-.263-.219-.398-.329-.469-.38-.947-.767-1.194-1.261-.263-.524-.629-.778-1.035-1.06l-.021-.015c-.326-.226-.662-.437-.98-.637-.128-.08-.252-.158-.372-.235a15.008 15.008 0 0 0-.402-.02c-.289-.013-.561-.024-.826-.073a4.82 4.82 0 0 1-.737-.214h-.001a3.663 3.663 0 0 0-.151-.052h-.001l-.789.309-1.176.459-.02-.058-.019-.058-.001.001-.52.453c-.984-.135-1.699.377-2.354.977-.452.094-.921.037-1.383-.019-.779-.094-1.535-.185-2.14.453l-1.787.001-.08.213c.154.086.306.178.458.269.345.207.691.414 1.059.562a5.582 5.582 0 0 1 1.913 1.236l-.275.75c-.428.125-.741.432-1.057.741-.42.411-.845.826-1.551.83l.068-.753-.337-.031-.625-.058-.746 1.045-.603.847.262.029h.003l.243.027-.244.29-.395.47.214.013.157.01.232.611.098.258.313.134.26.111.133.057-.021.347-.039.612-.611.137c-.099-.251-.197-.491-.399-.635-.37-.263-.828-.4-1.295-.54h-.001a11.187 11.187 0 0 1-.613-.196l-.37.383-.316.328-.7-.493-.849.487-.005.003-1.159.664a6.998 6.998 0 0 0-.022.248c-.018.246-.04.556-.12.851-.044.164-.083.332-.123.501-.138.588-.279 1.187-.616 1.624-.358.465-.427.905-.504 1.393l-.004.026c-.062.391-.106.786-.147 1.159l-.05.437c.049.12.098.236.147.349-.127.074-.249.17-.366.293l-1.786.001-.081.213c.154.086.306.178.458.269.346.207.691.415 1.06.562a5.582 5.582 0 0 1 1.913 1.236l-.276.75c-.427.126-.741.432-1.057.741-.42.411-.845.826-1.55.83l.067-.753-.336-.031-.626-.058-.742 1.041-.003.004-.603.847.264.029.243.027-.243.29-.396.47.211.013h.003l.157.01.232.611.098.258.313.134.394.168-.022.347-.038.612-.611.137c-.1-.251-.198-.491-.4-.635-.369-.263-.828-.4-1.295-.54a10.918 10.918 0 0 1-.613-.196l-.37.383-.317.328-.699-.493-.85.487-1.164.667c-.008.071-.014.155-.021.248v.001a4.597 4.597 0 0 1-.12.85c-.044.164-.084.332-.124.501-.138.588-.278 1.187-.615 1.624-.358.465-.428.905-.505 1.393l-.004.026c-.061.392-.105.786-.147 1.159l-.049.437c.051.129.104.252.156.372.114.265.222.515.294.775.076.275.107.562.128.757.007.064.013.119.019.159h.001zM621.641 290.08l-.145.401-.215.599-.058-.023v.347c-.378.329-.42.77-.41 1.218-.114.202-.291.362-.466.518-.294.265-.579.521-.537.962l-.592.679.054.101c.084-.03.169-.057.254-.085a3.75 3.75 0 0 0 .564-.215 2.817 2.817 0 0 1 1.104-.316l.193.353c-.094.204-.082.424-.069.646.016.296.033.595-.2.864l-.263-.275-.353.335.15.63.121.509.098-.09h.001l.091-.084.076.495.076-.077.056-.057.308.115.131.049.155-.075.194-.094.344.341-.198.364.52.414c.176-.145.319-.063.464.02.104.059.208.119.324.095l.049.113.047.108.853-.061.261.231 1.387 1.233.166-.037.594-.135c.128-.116.269-.211.409-.305.13-.087.259-.173.373-.274.237-.21.449-.448.662-.685l.226-.251c.274-.297.573-.533 1.015-.451l.043-.312c.084-.012.128-.082.171-.15.066-.105.129-.205.326-.087l.006.104-.181.172.15.629.121.51.098-.091h.001l.09-.083.077.494.076-.077.056-.056.308.115.131.048.155-.075.194-.093.344.341-.198.363.52.414c.175-.144.319-.062.464.021.104.059.208.118.324.094l.049.114.047.108.853-.062.26.232 1.388 1.233.166-.038.594-.134a3.29 3.29 0 0 1 .409-.305c.13-.087.258-.173.373-.274.236-.211.449-.448.661-.685v-.001l.227-.25c.274-.297.573-.534 1.014-.451l.043-.312c.085-.012.129-.082.172-.151.066-.104.129-.204.326-.087l.024.475.012-.023.002-.002.217-.407c.02.074.032.145.043.206.02.112.035.194.076.211.214.088.278.276.339.456.045.131.089.259.189.338.18.141.408.221.639.303.102.035.205.072.304.113l.363-.341.34.265.44-.225.601-.308c.006-.035.011-.077.017-.124.015-.124.034-.279.081-.426.026-.081.05-.165.074-.249.084-.292.169-.59.349-.802.191-.226.237-.445.287-.689l.003-.013c.04-.196.072-.393.102-.58l.035-.219a10.114 10.114 0 0 0-.069-.191 2.915 2.915 0 0 1-.13-.397 2.485 2.485 0 0 1-.046-.384 2.45 2.45 0 0 0-.006-.081l-.299-.305-.445-.454.046-.041a30.2 30.2 0 0 0-.313-.152c-.132-.483-.51-.713-.918-.899-.132-.191-.199-.42-.264-.645-.11-.38-.217-.748-.632-.903l-.353-.828-.115.005c-.01.088-.022.177-.034.265-.028.201-.056.402-.052.602.009.392-.048.761-.195 1.131l-.402.021c-.143-.174-.347-.259-.552-.344-.274-.114-.55-.229-.691-.555l.362-.117-.148-.464-.633-.14-.511-.112.039.128.035.118-.478-.146.036.102.027.075-.237.227-.101.097-.001.172v.215l-.456.162-.184-.256c.096-.096.188-.189.215-.311.049-.223.022-.463-.005-.707a5.783 5.783 0 0 1-.03-.323l-.465-.178.09-.422-.393-.297-.539-.408a2.02 2.02 0 0 0-.12.039c-.117.04-.266.091-.418.112-.084.012-.17.027-.257.042-.299.052-.605.105-.874.035-.286-.075-.504-.02-.745.041l-.013.003a12.02 12.02 0 0 0-.566.161l-.213.063-.133.137a.806.806 0 0 0-.208-.112l-.353-.828-.115.004c-.009.089-.022.177-.034.266-.028.201-.056.402-.052.602.009.391-.047.76-.195 1.131l-.402.02c-.143-.173-.347-.258-.552-.344-.274-.113-.55-.228-.691-.555l.362-.117-.148-.464-.632-.139-.511-.113.038.129.036.118-.479-.146.036.102.027.074-.237.228-.101.097v.172l-.001.215-.456.161-.184-.256c.097-.096.188-.189.215-.311.049-.223.022-.462-.005-.707a5.783 5.783 0 0 1-.03-.323l-.465-.178.09-.421-.393-.298h-.001l-.538-.408c-.035.01-.075.024-.12.039-.117.04-.265.091-.418.112-.084.012-.17.027-.256.042-.3.052-.606.105-.875.035-.286-.074-.504-.02-.745.041l-.013.003c-.194.049-.385.107-.566.161a20.99 20.99 0 0 1-.213.063l-.141.146c-.1.105-.195.205-.302.289-.112.09-.239.161-.325.209l-.07.04v.001zM1053.96 451.818c.1-.287.2-.591.31-.922v-.001c.04-.026.1-.057.16-.095.19-.115.48-.283.73-.492.24-.198.45-.429.67-.674.1-.111.21-.225.32-.34.15-.049.31-.101.48-.154.41-.133.84-.274 1.28-.395l.03-.008c.54-.151 1.04-.286 1.69-.132.62.146 1.31.009 1.99-.125.2-.038.39-.077.58-.108.35-.057.68-.179.95-.277.1-.037.19-.07.27-.095.44.32.84.612 1.24.901.31.218.61.433.92.657-.05.241-.11.569-.19.964l.49.176.58.206c.02.245.05.49.08.734.08.554.15 1.098.05 1.608-.05.28-.26.496-.47.719l.43.573c.2-.075.41-.156.66-.249.11-.044.24-.091.37-.142 0-.155-.01-.313-.01-.489 0-.121 0-.25-.01-.392.07-.072.15-.147.23-.225.16-.168.34-.347.52-.531-.01-.05-.04-.106-.06-.168-.03-.069-.05-.145-.09-.23.24.065.45.126.68.19.13.038.27.076.42.118-.04-.107-.06-.193-.09-.267-.03-.116-.06-.202-.09-.291.38.076.77.152 1.17.23.46.09.93.184 1.44.285.07.181.15.421.24.686.04.116.08.238.13.362l-.82.285c.33.736.97.984 1.6 1.228.47.184.94.367 1.27.755l.92-.068c.31-.851.42-1.694.38-2.584-.02-.455.04-.914.09-1.373.02-.202.05-.404.06-.606l.26-.016.85 1.866c.95.331 1.22 1.164 1.49 2.023.16.508.32 1.026.63 1.454.94.401 1.81.905 2.14 1.999l.72.329c-.02.016-.04.032-.05.048l-.06.048c.34.325.67.65 1.04 1.013.22.211.45.434.7.678v-.001c0 .047.01.11.01.184.02.224.05.554.13.871.07.301.19.591.31.898.06.139.12.282.17.431-.02.161-.04.328-.07.5-.05.426-.12.878-.2 1.325v.029c-.11.558-.2 1.061-.62 1.583-.4.492-.58 1.175-.76 1.845-.05.193-.1.385-.15.571-.1.336-.14.691-.16.972-.01.107-.02.204-.04.285-.48.259-.92.497-1.35.731-.33.177-.65.352-.99.534-.19-.146-.46-.346-.79-.585-.12.126-.25.248-.37.367-.15.147-.29.289-.43.428-.23-.089-.47-.166-.7-.242-.53-.174-1.05-.344-1.47-.657-.23-.175-.34-.462-.45-.76-.15-.405-.3-.829-.79-1.019-.1-.037-.14-.223-.19-.476-.03-.14-.06-.301-.11-.467l-.47.943-.03.051-.08-1.079c-.45-.256-.59-.025-.74.215-.09.158-.19.32-.38.351-.03.236-.05.474-.08.714-1.01-.165-1.68.387-2.29 1.079-.17.192-.33.386-.5.581-.47.552-.94 1.103-1.47 1.594-.26.237-.54.439-.83.643-.32.22-.64.443-.92.716-.45.113-.91.226-1.34.335-.13.032-.26.063-.38.094-1.08-.919-2.14-1.812-3.22-2.734l-.61-.514-1.94.184a2.233 2.233 0 0 0-.11-.243 2.348 2.348 0 0 0-.12-.256c-.26.061-.5-.069-.74-.199-.33-.18-.66-.36-1.06-.022-.4-.31-.76-.581-1.2-.915l.43-.838c-.15-.145-.32-.302-.51-.483-.09-.086-.19-.177-.29-.275l-.44.223c-.1.054-.22.113-.35.177l-.29-.103c-.23-.077-.47-.16-.71-.245l-.13.131c-.05.053-.1.113-.17.179-.04-.24-.08-.46-.12-.694-.02-.136-.05-.276-.08-.427-.08.077-.14.14-.2.194-.09.084-.15.147-.22.211-.1-.381-.2-.76-.3-1.153-.12-.451-.24-.919-.37-1.425.13-.135.31-.313.51-.509.09-.088.18-.18.27-.273l.62.613c.51-.624.46-1.304.4-1.976-.04-.506-.08-1.007.13-1.476l-.46-.793c-.9.084-1.71.353-2.49.776-.41.216-.84.368-1.28.519-.19.067-.38.134-.57.206l-.13-.227 1.31-1.575c-.11-1.002.52-1.6 1.18-2.217.39-.366.78-.738 1.03-1.204-.05-1.018.03-2.025.87-2.792-.01-.265-.01-.528-.02-.792.03.008.05.017.07.025l.06.025c.15-.441.3-.882.46-1.373z" fill="#EFF0F2"/>
            <circle cx="726.64" cy="225.639" r="19" transform="rotate(27.591 726.64 225.639)" fill="#131825"/>
            <path d="M726.77 218.239c.893 0 1.653.16 2.28.48.627.307 1.1.733 1.42 1.28.333.547.5 1.167.5 1.86 0 .88-.26 1.627-.78 2.24-.52.613-1.313.973-2.38 1.08v.12c1.067.267 1.9.687 2.5 1.26.613.56.92 1.34.92 2.34 0 1.147-.38 2.08-1.14 2.8-.747.72-1.84 1.08-3.28 1.08-1.427 0-2.58-.367-3.46-1.1-.88-.747-1.407-1.827-1.58-3.24h1.38c.147.947.527 1.707 1.14 2.28.627.56 1.453.84 2.48.84 1 0 1.76-.253 2.28-.76.533-.507.8-1.167.8-1.98 0-.96-.38-1.687-1.14-2.18-.747-.507-1.807-.76-3.18-.76h-.44v-1.18h.44c2.707 0 4.06-.9 4.06-2.7 0-.787-.253-1.413-.76-1.88-.507-.467-1.207-.7-2.1-.7-.88 0-1.627.247-2.24.74-.613.493-.98 1.233-1.1 2.22h-1.38c.107-1.307.573-2.32 1.4-3.04.827-.733 1.947-1.1 3.36-1.1z" fill="#fff"/>
            <circle cx="1058.64" cy="456.639" r="19" transform="rotate(27.591 1058.64 456.639)" fill="#131825"/>
            <path d="M1053.13 460.239v-1.16l7.44-9.6h1.5v9.52h2.2v1.24h-2.2v3.4h-1.42v-3.4h-7.52zm7.62-9.02-6.12 7.78h6.12v-7.78z" fill="#fff"/>
            <path d="M753 228.5c10.167-1.167 32.1 1.3 38.5 20.5 8 24 9.5 55.5 40.5 60.5s66.5-4.5 87.5 38 35.288 87.053 77.5 76.5c20-5 39.83 9.166 41.5 12M1079.5 476.5c5.17 4.333 18.6 9.6 31-4 15.5-17 8.5-44 31-50s42 0 58.5-20.5c13.2-16.4 15-15.833 14.5-22.5" stroke="#131825" stroke-dasharray="5 5"/>
        </g>
        <path fill-rule="evenodd" clip-rule="evenodd" d="m1208.4 328.995.64-1.93v-.002c.08-.054.2-.12.33-.2.41-.239 1.01-.591 1.53-1.03.5-.415.94-.899 1.41-1.411.21-.233.43-.471.66-.711.32-.103.66-.212 1-.324.86-.279 1.77-.574 2.69-.828l.06-.016c1.14-.315 2.17-.599 3.54-.276 1.29.305 2.75.019 4.17-.261.41-.081.82-.161 1.22-.227.72-.119 1.42-.376 1.98-.58.21-.077.4-.147.56-.199l2.62 1.887c.63.456 1.26.908 1.91 1.377-.1.504-.23 1.191-.39 2.019.35.126.7.249 1.03.368.41.147.81.29 1.21.43.04.514.1 1.028.17 1.537.16 1.161.32 2.3.11 3.37-.12.585-.55 1.038-1 1.504.12.158.24.323.37.494.17.226.35.463.53.707.42-.157.86-.326 1.38-.521.24-.093.5-.192.78-.298 0-.325-.01-.657-.02-1.026 0-.252-.01-.522-.02-.819.15-.151.31-.31.48-.474.34-.35.72-.726 1.1-1.11-.04-.104-.08-.221-.13-.352-.06-.144-.12-.304-.19-.482.49.138.95.265 1.43.399.27.078.56.159.87.246-.07-.224-.13-.404-.18-.559-.08-.242-.14-.422-.2-.608.81.159 1.62.317 2.45.481l3.03.596c.13.379.3.88.49 1.432.09.246.17.502.26.763l-1.71.597c.71 1.542 2.04 2.06 3.35 2.572.99.386 1.97.768 2.67 1.58l1.92-.14c.66-1.783.89-3.548.81-5.413-.05-.953.07-1.914.18-2.875.05-.424.1-.847.13-1.27l.55-.034c.55 1.228 1.11 2.456 1.77 3.909 2 .693 2.55 2.438 3.11 4.236.34 1.066.68 2.15 1.33 3.046 1.96.84 3.79 1.896 4.47 4.186.51.229 1.01.459 1.51.688v.001c-.03.033-.07.067-.11.101-.03.033-.07.067-.1.101.69.679 1.39 1.359 2.16 2.115.46.444.94.914 1.46 1.425h.01c.01.097.02.229.03.384.04.469.1 1.16.26 1.825.16.63.4 1.238.66 1.881.12.291.24.59.36.902-.05.337-.1.688-.15 1.047-.12.892-.25 1.838-.42 2.775l-.01.061c-.22 1.169-.41 2.221-1.3 3.315-.83 1.03-1.21 2.46-1.58 3.864-.1.404-.21.806-.32 1.196-.21.703-.28 1.447-.34 2.036a7.26 7.26 0 0 1-.07.596c-1 .543-1.92 1.04-2.83 1.53-.69.372-1.37.739-2.07 1.12-.42-.306-.98-.724-1.65-1.226-.27.264-.53.519-.78.768-.32.308-.62.606-.92.898-.48-.188-.97-.348-1.46-.508-1.11-.363-2.2-.72-3.08-1.375-.48-.366-.7-.968-.93-1.592-.31-.847-.64-1.736-1.67-2.134-.2-.077-.28-.467-.38-.997-.06-.294-.13-.63-.23-.979-.41.798-.64 1.267-1 1.975l-.06.108-.16-2.259c-.95-.538-1.24-.054-1.55.45-.19.33-.4.669-.8.735-.05.493-.11.993-.17 1.495-2.11-.346-3.51.811-4.79 2.259-.35.402-.7.81-1.05 1.218-.99 1.155-1.97 2.31-3.08 3.337-.53.497-1.14.92-1.75 1.347-.65.462-1.32.929-1.91 1.499l-2.82.705-.79.195c-2.27-1.926-4.47-3.798-6.75-5.73l-1.26-1.072-2.71.256-1.35.129c-.06-.125-.14-.3-.24-.509-.07-.161-.15-.342-.24-.536-.55.127-1.06-.146-1.56-.417-.7-.378-1.39-.754-2.21-.046-.86-.649-1.61-1.218-2.53-1.917.16-.297.33-.625.51-.974.12-.25.26-.511.4-.781-.32-.304-.67-.631-1.07-1.012-.19-.179-.39-.37-.61-.576-.29.149-.59.3-.91.467-.23.115-.47.237-.73.372l-.63-.217-1.49-.513c-.07.081-.16.173-.25.275-.11.111-.23.236-.36.375-.09-.502-.17-.964-.26-1.454-.05-.285-.1-.578-.16-.895-.17.163-.3.294-.42.407-.18.176-.32.308-.46.442-.21-.797-.42-1.592-.63-2.414l-.79-2.986c.29-.283.66-.655 1.08-1.066.18-.184.37-.376.57-.571.41.405.83.825 1.28 1.284 1.08-1.307.97-2.731.86-4.138-.08-1.059-.16-2.109.26-3.091l-.96-1.662c-1.89.177-3.58.739-5.22 1.625-.84.453-1.76.771-2.67 1.089-.4.14-.81.28-1.2.431l-.27-.477c.86-1.035 1.73-2.071 2.75-3.297-.25-2.099 1.08-3.352 2.46-4.644.81-.766 1.64-1.545 2.16-2.522-.1-2.132.06-4.24 1.83-5.847-.02-.555-.03-1.106-.04-1.657v-.001c.04.017.09.035.14.052.04.018.09.036.13.053.31-.924.62-1.849.97-2.877z" fill="#EFF0F2"/>
        <circle cx="1214.64" cy="352.639" r="19" transform="rotate(27.591 1214.64 352.639)" fill="#131825"/>
        <path d="M1219.01 346.659h-7.48v5.22c.36-.48.87-.867 1.54-1.16.66-.293 1.38-.44 2.16-.44 1.5 0 2.62.433 3.36 1.3.74.867 1.12 1.953 1.12 3.26 0 1.427-.4 2.6-1.2 3.52-.8.92-1.99 1.38-3.56 1.38-1.38 0-2.5-.373-3.38-1.12-.87-.747-1.37-1.76-1.5-3.04h1.38c.17.933.56 1.653 1.16 2.16.6.507 1.35.76 2.26.76 1.14 0 2-.333 2.58-1 .58-.68.88-1.573.88-2.68 0-1.067-.3-1.9-.88-2.5-.59-.6-1.43-.9-2.52-.9-.76 0-1.44.16-2.02.48-.58.32-1.02.76-1.32 1.32h-1.36v-7.8h8.78v1.24z" fill="#fff"/>
        <circle cx="450.64" cy="270.639" r="19" transform="rotate(27.591 450.64 270.639)" fill="#131825"/>
        <path d="M445.866 276.579c2.36-1.56 4.24-3.127 5.64-4.7 1.413-1.573 2.12-3.047 2.12-4.42 0-.867-.227-1.567-.68-2.1-.454-.547-1.187-.82-2.2-.82-1.04 0-1.834.327-2.38.98-.534.64-.834 1.513-.9 2.62h-1.38c.093-1.533.566-2.713 1.42-3.54.853-.84 1.966-1.26 3.34-1.26 1.253 0 2.266.34 3.04 1.02.773.68 1.16 1.673 1.16 2.98 0 1.107-.367 2.24-1.1 3.4a15.767 15.767 0 0 1-2.74 3.2 22.35 22.35 0 0 1-3.34 2.48h7.58v1.16h-9.58v-1z" fill="#fff"/>
        <path d="M268 117.592c14.58-5.653 49.989-10.661 74.983 14.538C374.226 163.628 358.605 252.793 426 262M1218 327.5c-3.33-5.5-8.7-20.1-3.5-34.5 6.5-18 16.5-11.5 25.5-38.5s-28.5-79 9.5-103M470 254.5c5-11 29.1-16.5 53.5-8.5 30.5 10 87.5 39 123 17s37-35 53.5-36" stroke="#131825" stroke-dasharray="5 5"/>
    </g>
    <defs>
        <clipPath id="5kkq7qrkca">
            <path fill="#fff" d="M0 0h1440v557H0z"/>
        </clipPath>
        <clipPath id="ghm0s8h6yb">
            <path fill="#fff" transform="translate(1193 -489)" d="M0 0h1022v810H0z"/>
        </clipPath>
        <clipPath id="twbolkchdc">
            <path fill="#fff" transform="rotate(62.408 580.272 -383.211)" d="M0 0h1022v810H0z"/>
        </clipPath>
        <clipPath id="mqry88tgrd">
            <path fill="#fff" transform="rotate(64.865 660.941 596.885)" d="M0 0h757.709v600.424H0z"/>
        </clipPath>
    </defs>
</svg>
